<svg width="125" height="43" viewBox="0 0 125 43" fill="none" xmlns="http://www.w3.org/2000/svg">
<g clip-path="url(#clip0_24_3395)">
<g clip-path="url(#clip1_24_3395)">
<g clip-path="url(#clip2_24_3395)">
<g clip-path="url(#clip3_24_3395)">
<g clip-path="url(#clip4_24_3395)">
<g clip-path="url(#clip5_24_3395)">
<g clip-path="url(#clip6_24_3395)">
<path d="M0.248169 15.3682V14.9907C0.248169 14.9403 0.274788 14.9152 0.327629 14.9152C0.4496 14.9073 0.592629 14.8886 0.756714 14.8596C0.92358 14.8306 1.09164 14.7694 1.26129 14.6769C1.43332 14.5843 1.60018 14.4452 1.76188 14.2597C1.92359 14.0741 2.05986 13.8199 2.1711 13.4969L6.06862 2.18969C6.06862 2.19485 6.06982 2.19088 6.0726 2.17777C6.07538 2.16466 6.07657 2.15115 6.07657 2.13804C6.07657 2.09314 6.05949 2.03752 6.02492 1.97117C5.99036 1.90244 5.97327 1.85198 5.97327 1.8202C5.97327 1.78841 5.98519 1.77252 6.00903 1.77252H8.82192C8.83503 1.77769 8.8537 1.78325 8.87754 1.78841C8.89859 1.79636 8.91608 1.81623 8.92919 1.84801L13.0333 13.3618C13.0969 13.5418 13.1577 13.6967 13.2161 13.8266C13.2745 13.9565 13.3444 14.0718 13.4266 14.1723C13.5061 14.2728 13.6082 14.363 13.7326 14.4424C13.8545 14.5247 14.0119 14.6081 14.2053 14.6927C14.2979 14.7376 14.4211 14.7853 14.5748 14.8358C14.731 14.8886 14.8796 14.9152 15.0198 14.9152C15.0544 14.9152 15.0754 14.9244 15.0834 14.943C15.0941 14.9617 15.0993 14.9816 15.0993 15.0026V15.3682C15.0993 15.3813 15.0941 15.3987 15.0834 15.4198C15.0754 15.4385 15.0544 15.4476 15.0198 15.4476H8.21405C8.17948 15.4476 8.15842 15.4385 8.15048 15.4198C8.13975 15.3987 8.13459 15.3813 8.13459 15.3682V14.9907C8.13459 14.9776 8.13975 14.9617 8.15048 14.943C8.15842 14.9244 8.17948 14.9152 8.21405 14.9152C8.23788 14.9152 8.26291 14.914 8.28953 14.9113C8.31615 14.9061 8.33602 14.9033 8.34913 14.9033C8.42064 14.8981 8.52275 14.8914 8.65505 14.8834C8.78735 14.8783 8.93038 14.8676 9.08414 14.8517C9.24027 14.8358 9.398 14.8092 9.55692 14.7722C9.71584 14.7376 9.85887 14.686 9.98601 14.6173C10.1159 14.5509 10.2232 14.4623 10.3078 14.3511C10.3924 14.2426 10.435 14.1075 10.435 13.9458C10.435 13.9061 10.4282 13.8596 10.4151 13.8068L9.14373 10.3065C9.13857 10.2934 9.12665 10.264 9.10797 10.2191C9.09208 10.1742 9.06705 10.1278 9.03249 10.0801C8.99554 10.0296 8.95024 9.98592 8.8974 9.94897C8.84178 9.90924 8.77543 9.88938 8.69875 9.88938H5.19456C5.11232 9.88938 5.0424 9.90924 4.98399 9.94897C4.92559 9.98592 4.87672 10.0272 4.83699 10.0721C4.79726 10.1198 4.76667 10.1663 4.74561 10.2112C4.72177 10.2561 4.70986 10.2815 4.70986 10.2867C4.50326 10.8957 4.32845 11.4083 4.18542 11.8242C4.04517 12.2426 3.92717 12.587 3.83182 12.8572C3.73925 13.1302 3.66615 13.3407 3.61331 13.4889C3.56285 13.6371 3.5259 13.746 3.50206 13.8147C3.481 13.8811 3.46909 13.922 3.4663 13.9379C3.46114 13.9538 3.45836 13.9617 3.45836 13.9617C3.45836 13.9828 3.46233 14.0042 3.47028 14.0253C3.47544 14.0491 3.4822 14.0702 3.49014 14.0888C3.5406 14.2505 3.63595 14.3856 3.7762 14.4941C3.91406 14.6002 4.07417 14.6836 4.25693 14.7444C4.43691 14.8052 4.62245 14.8489 4.81315 14.8755C5.00386 14.9021 5.1735 14.9152 5.3217 14.9152H5.57597C5.60775 14.9152 5.62762 14.9244 5.63557 14.943C5.64629 14.9617 5.65146 14.9776 5.65146 14.9907V15.3682C5.65146 15.3813 5.64629 15.3987 5.63557 15.4198C5.62762 15.4385 5.60775 15.4476 5.57597 15.4476H0.327629C0.274788 15.4476 0.248169 15.421 0.248169 15.3682ZM6.55333 4.96285L5.33362 8.49485C5.32051 8.52664 5.30978 8.55842 5.30183 8.5902C5.29667 8.62199 5.29389 8.65377 5.29389 8.68556C5.29389 8.72529 5.30303 8.75707 5.3217 8.78091C5.34037 8.80196 5.37851 8.81269 5.43692 8.81269H8.34913C8.42064 8.81269 8.46713 8.79799 8.48818 8.76899C8.51202 8.73999 8.52394 8.70542 8.52394 8.66569C8.52394 8.63391 8.51997 8.6049 8.51202 8.57828C8.50686 8.55445 8.49732 8.52664 8.48421 8.49485L7.19298 4.95093C7.1612 4.86074 7.11352 4.79479 7.04996 4.75228C6.98361 4.70977 6.9256 4.68871 6.87514 4.68871C6.8223 4.68871 6.7639 4.71374 6.70033 4.7642C6.63398 4.81187 6.58511 4.87822 6.55333 4.96285ZM15.9415 15.4476H15.6634C15.6237 15.4476 15.6011 15.4357 15.5959 15.4119C15.5879 15.3908 15.584 15.3761 15.584 15.3682V14.951C15.584 14.9458 15.5879 14.9323 15.5959 14.9113C15.6011 14.8874 15.6237 14.8755 15.6634 14.8755H15.874C16.0119 14.8755 16.1799 14.8676 16.3786 14.8517C16.58 14.8358 16.7747 14.7909 16.9626 14.7166C17.1505 14.6423 17.311 14.5287 17.4433 14.3749C17.5756 14.2239 17.642 14.0161 17.642 13.7511V3.4094C17.642 3.21075 17.5983 3.0411 17.5109 2.90086C17.4235 2.76299 17.3134 2.65056 17.1811 2.56315C17.0488 2.47574 16.9018 2.41218 16.7401 2.37245C16.5784 2.33272 16.4263 2.31285 16.2832 2.31285H15.6634C15.6237 2.31285 15.6011 2.30212 15.5959 2.28107C15.5879 2.25723 15.584 2.24253 15.584 2.23736V1.8202C15.584 1.81225 15.5879 1.79755 15.5959 1.7765C15.6011 1.75266 15.6237 1.74074 15.6634 1.74074H15.874L19.8629 1.6732C20.2364 1.66803 20.6416 1.66406 21.0786 1.66128C21.5157 1.65611 21.9221 1.65333 22.2984 1.65333C22.7036 1.65333 23.0679 1.6585 23.3909 1.66922C23.7139 1.67995 24.0254 1.69982 24.3246 1.72882C24.6214 1.75782 24.9217 1.79517 25.2265 1.84006C25.5312 1.88496 25.8701 1.94614 26.2435 2.02282C26.9615 2.17101 27.6289 2.44674 28.2459 2.84921C28.8629 3.24929 29.3969 3.734 29.8471 4.30333C30.2972 4.87266 30.6496 5.50318 30.9039 6.19448C31.1609 6.88578 31.2893 7.59417 31.2893 8.32004C31.2893 9.01651 31.1911 9.67762 30.9953 10.3026C30.8018 10.9251 30.5332 11.4996 30.1887 12.0269C29.8419 12.5541 29.4311 13.0292 28.9571 13.4532C28.4804 13.8771 27.9571 14.2358 27.3878 14.5298C26.8184 14.8239 26.2145 15.0503 25.5761 15.2092C24.9352 15.3682 24.2781 15.4476 23.6055 15.4476H15.9415ZM20.4032 13.8942V13.9458C20.4032 14.1314 20.464 14.2756 20.586 14.3789C20.7052 14.485 20.8629 14.5616 21.0588 14.6093C21.2574 14.657 21.4891 14.6848 21.7541 14.6927C22.0191 14.6979 22.2972 14.7007 22.5884 14.7007C24.5085 14.7007 25.9484 14.1711 26.907 13.1115C27.8685 12.0495 28.3492 10.504 28.3492 8.47499C28.3492 7.58225 28.2408 6.76381 28.0235 6.01967C27.8061 5.27552 27.4764 4.63587 27.0342 4.10071C26.592 3.56316 26.0358 3.14599 25.3655 2.84921C24.698 2.55004 23.9074 2.40026 22.9936 2.40026H20.6456C20.5502 2.40026 20.4867 2.42131 20.4549 2.46383C20.4203 2.50634 20.4032 2.57229 20.4032 2.66248V13.8942ZM37.1256 15.7098C36.9719 15.7098 36.8725 15.6383 36.8276 15.4953L31.774 3.25445C31.7156 3.11143 31.6389 2.99104 31.5435 2.89291C31.451 2.79239 31.3556 2.70737 31.2575 2.63864C31.1621 2.5699 31.0696 2.51826 30.9794 2.48369C30.8868 2.44913 30.8113 2.42529 30.7529 2.41218C30.708 2.39907 30.6564 2.38556 30.598 2.37245C30.5396 2.35934 30.4839 2.34742 30.4311 2.33669C30.3755 2.32874 30.325 2.3208 30.2801 2.31285C30.2352 2.30769 30.2086 2.3049 30.2007 2.3049C30.1502 2.3049 30.1252 2.27829 30.1252 2.22545V1.84801C30.1252 1.79755 30.1502 1.77252 30.2007 1.77252H36.7959C36.8356 1.77252 36.8594 1.78047 36.8674 1.79636C36.8725 1.81225 36.8753 1.82934 36.8753 1.84801V2.22545C36.8753 2.23856 36.8701 2.25604 36.8594 2.27709C36.8515 2.29577 36.8304 2.3049 36.7959 2.3049H36.6528C36.4911 2.33152 36.3084 2.35655 36.1045 2.38039C35.9007 2.40701 35.71 2.45469 35.5324 2.52342C35.3548 2.58977 35.2066 2.69029 35.0875 2.82537C34.9655 2.95767 34.9047 3.13924 34.9047 3.36967C34.9047 3.4543 34.9194 3.55243 34.9484 3.66367C34.9774 3.77214 35.0092 3.86232 35.0438 3.93384L38.5042 12.3328C38.5122 12.3538 38.5201 12.3685 38.5281 12.3765C38.5388 12.3872 38.5507 12.3991 38.5638 12.4122C38.577 12.4253 38.5905 12.4321 38.6036 12.4321C38.6485 12.4321 38.683 12.3963 38.7069 12.3248L41.8892 3.73122C41.9159 3.6597 41.9437 3.59335 41.9727 3.53256C42.0017 3.47178 42.0164 3.40821 42.0164 3.34186C42.0164 3.11659 41.9421 2.92072 41.7939 2.75385C41.6457 2.58977 41.4391 2.48488 41.1741 2.43999C41.1344 2.43482 41.0708 2.42529 40.9834 2.41218C40.896 2.39907 40.8034 2.38437 40.7053 2.36847C40.6099 2.35258 40.5174 2.33788 40.4272 2.32477C40.3346 2.31166 40.2695 2.3049 40.2325 2.3049C40.1797 2.3049 40.153 2.27829 40.153 2.22545V1.84801C40.153 1.8349 40.157 1.81901 40.165 1.80033C40.1701 1.78166 40.1928 1.77252 40.2325 1.77252H45.4212C45.4582 1.77252 45.4808 1.78166 45.4888 1.80033C45.494 1.81901 45.4967 1.8349 45.4967 1.84801V2.22545C45.4967 2.2465 45.494 2.26518 45.4888 2.28107C45.4808 2.29696 45.4582 2.3049 45.4212 2.3049H45.0637C44.7061 2.37642 44.4133 2.51428 44.1856 2.7181C43.9552 2.92191 43.7605 3.16029 43.6016 3.43324C43.4427 3.70857 43.3088 4.00257 43.2003 4.31525C43.0891 4.63031 42.979 4.93384 42.8706 5.22507L39.1161 15.3682C39.0577 15.5322 38.9862 15.6304 38.9015 15.6622C38.8169 15.6939 38.7001 15.7098 38.5519 15.7098H37.1256ZM45.6159 15.2331V14.951C45.6159 14.9458 45.6187 14.9323 45.6239 14.9113C45.6318 14.8874 45.6545 14.8755 45.6914 14.8755H45.906C46.1761 14.8568 46.4542 14.8449 46.7403 14.8397C47.0236 14.837 47.2818 14.8028 47.515 14.7364C47.7482 14.6677 47.9389 14.5469 48.0871 14.3749C48.2353 14.2053 48.3096 13.9391 48.3096 13.5763V3.64381C48.3096 3.39232 48.258 3.18691 48.1547 3.02799C48.0514 2.86907 47.9163 2.74074 47.7494 2.64261C47.5798 2.54726 47.3891 2.47455 47.1773 2.4241C46.9628 2.37642 46.7455 2.33669 46.5257 2.3049H46.3231C46.2913 2.3049 46.2703 2.29577 46.2596 2.27709C46.2488 2.25604 46.2437 2.23856 46.2437 2.22545V1.84801C46.2437 1.8349 46.2488 1.81901 46.2596 1.80033C46.2703 1.78166 46.2913 1.77252 46.3231 1.77252H55.9855C56.0995 1.77252 56.1829 1.79239 56.2358 1.83212C56.2886 1.87463 56.3204 1.9672 56.3311 2.11023L56.5059 5.21315C56.5059 5.24771 56.4793 5.27274 56.4265 5.28863C56.3709 5.30453 56.3204 5.31247 56.2755 5.31247C56.2227 5.31247 56.171 5.30572 56.1206 5.29261C56.0677 5.2795 56.032 5.25963 56.0133 5.23301C55.9684 5.16944 55.935 5.07409 55.914 4.94696C55.8953 4.8226 55.8754 4.68196 55.8544 4.52582C55.8305 4.36968 55.7976 4.20798 55.755 4.04111C55.7125 3.87146 55.6506 3.71652 55.5683 3.57627C55.4837 3.43324 55.3685 3.30888 55.2227 3.20281C55.0769 3.09434 54.8901 3.02124 54.6625 2.98429H51.202C51.1174 2.98429 51.0748 3.0268 51.0748 3.11143V7.73601C51.0748 7.79957 51.1078 7.83136 51.1742 7.83136H53.9473C54.109 7.83136 54.2691 7.81149 54.4281 7.77176C54.5842 7.72925 54.7233 7.65257 54.8452 7.54133C54.9644 7.43287 55.061 7.27911 55.1353 7.08046C55.2095 6.88459 55.2465 6.63151 55.2465 6.32162C55.2465 6.26878 55.2731 6.24216 55.326 6.24216H55.7034C55.7538 6.24216 55.7789 6.26878 55.7789 6.32162V10.7634C55.7789 10.7952 55.7697 10.8163 55.7511 10.827C55.7324 10.835 55.7165 10.8389 55.7034 10.8389H55.326C55.2914 10.8389 55.2703 10.8298 55.2624 10.8111C55.2517 10.7924 55.2465 10.7765 55.2465 10.7634C55.2465 10.4007 55.2095 10.1079 55.1353 9.8854C55.061 9.66292 54.9616 9.4881 54.8373 9.36097C54.7153 9.23383 54.5751 9.1504 54.4161 9.11067C54.2572 9.06816 54.0915 9.0471 53.9195 9.0471H51.1742C51.1078 9.0471 51.0748 9.07888 51.0748 9.14245V13.3816C51.0748 13.5696 51.1038 13.7205 51.1622 13.8346C51.2206 13.9458 51.3001 14.0304 51.4006 14.0888C51.5011 14.1472 51.6164 14.1854 51.7463 14.2041C51.8734 14.2251 52.0085 14.2358 52.1515 14.2358H54.8015C55.175 14.2358 55.4877 14.1496 55.7391 13.9776C55.9934 13.8056 56.1972 13.5974 56.351 13.3538C56.5071 13.1075 56.6223 12.852 56.6966 12.587C56.7709 12.322 56.817 12.0956 56.8357 11.9077C56.8488 11.823 56.8913 11.7567 56.9628 11.709C57.0343 11.6613 57.115 11.6375 57.2052 11.6375C57.237 11.6375 57.2755 11.6494 57.3204 11.6733C57.3681 11.6999 57.3919 11.7289 57.3919 11.7607L57.0701 15.3125C57.057 15.3443 57.0395 15.3749 57.0185 15.4039C56.9946 15.4329 56.9668 15.4476 56.935 15.4476H45.6914C45.6545 15.4476 45.6318 15.4357 45.6239 15.4119C45.6187 15.3908 45.6159 15.3761 45.6159 15.3682V15.2331ZM58.6712 15.0583V14.943C58.6712 14.9379 58.674 14.9232 58.6792 14.8993C58.6871 14.8783 58.7098 14.8676 58.7467 14.8676C58.7864 14.8676 58.8488 14.8608 58.9334 14.8477C59.0157 14.8346 59.1031 14.8211 59.1957 14.808C59.2859 14.7948 59.3693 14.7801 59.446 14.7643C59.5226 14.7484 59.5783 14.7364 59.6128 14.7285C59.9811 14.6463 60.2378 14.51 60.3836 14.3193C60.5294 14.1286 60.6021 13.8902 60.6021 13.6041V3.75108C60.6021 3.42807 60.5334 3.17221 60.3955 2.98429C60.2604 2.79637 60.1043 2.65572 59.9267 2.56315C59.7491 2.4678 59.5783 2.4094 59.4142 2.38834C59.2473 2.3645 59.1349 2.35258 59.0765 2.35258H58.711C58.6764 2.35258 58.6553 2.34344 58.6474 2.32477C58.6367 2.30371 58.6315 2.28782 58.6315 2.27709V1.84801C58.6315 1.8349 58.6343 1.8202 58.6394 1.80431C58.6474 1.78841 58.6712 1.77769 58.711 1.77252C58.7161 1.77252 58.7308 1.77252 58.7547 1.77252C58.7757 1.77252 58.8222 1.76974 58.8937 1.76458C58.9652 1.7618 59.0685 1.75941 59.2036 1.75663C59.3387 1.75385 59.5294 1.74868 59.7757 1.74074C60.1305 1.73557 60.5107 1.72604 60.916 1.71293C61.3212 1.69982 61.7304 1.68631 62.1436 1.6732C62.5568 1.66009 62.966 1.64936 63.3713 1.64141C63.7738 1.63069 64.154 1.62552 64.5115 1.62552H65.4889C66.0002 1.62552 66.5207 1.71293 67.0503 1.88774C67.5799 2.06255 68.0606 2.31961 68.4925 2.6585C68.9216 2.9974 69.274 3.42013 69.5493 3.92589C69.8247 4.42927 69.9625 5.01052 69.9625 5.67004C69.9625 6.09635 69.9041 6.47656 69.7877 6.8103C69.6713 7.14403 69.5108 7.43803 69.307 7.6923C69.1031 7.94936 68.8608 8.17423 68.5799 8.36771C68.2966 8.5612 67.9907 8.73204 67.6621 8.88023L70.6022 13.5366C70.8537 13.9367 71.1477 14.3006 71.4842 14.6292C71.8207 14.955 72.2112 15.1826 72.6562 15.3125C72.7091 15.3256 72.7396 15.3431 72.7476 15.3642C72.7583 15.388 72.7635 15.4158 72.7635 15.4476C72.7635 15.5457 72.7384 15.6105 72.688 15.6423C72.6352 15.6741 72.5541 15.69 72.4456 15.69C72.1727 15.69 71.8628 15.6729 71.516 15.6383C71.1715 15.6014 70.8247 15.543 70.475 15.4635C70.1254 15.3813 69.7945 15.2756 69.4818 15.1457C69.1667 15.0157 68.9029 14.8544 68.6911 14.661C68.4846 14.481 68.274 14.2517 68.0594 13.9736C67.8477 13.6955 67.6331 13.3964 67.4158 13.0757C67.1985 12.7551 66.9855 12.423 66.7762 12.0785C66.5644 11.7317 66.3602 11.3924 66.1643 11.0614C65.9657 10.7328 65.7762 10.4269 65.5962 10.1436C65.4162 9.85759 65.2505 9.61405 65.0996 9.41262L63.5898 9.30932C63.5819 9.30932 63.5552 9.30932 63.5104 9.30932C63.4655 9.30932 63.4337 9.31448 63.415 9.32521C63.3939 9.33832 63.3804 9.35183 63.3753 9.36494C63.3673 9.37805 63.3633 9.40467 63.3633 9.4444V13.5763C63.3633 13.7511 63.3872 13.9033 63.4349 14.0332C63.4798 14.1604 63.5552 14.2716 63.6613 14.367C63.7674 14.4595 63.9065 14.535 64.0785 14.5934C64.2505 14.6518 64.4587 14.6967 64.7023 14.7285C64.742 14.7364 64.7988 14.7472 64.8731 14.7603C64.9474 14.7734 65.028 14.7881 65.1154 14.804C65.2029 14.8199 65.2891 14.8346 65.3737 14.8477C65.4583 14.8608 65.5298 14.8676 65.5882 14.8676C65.6252 14.8676 65.6478 14.8767 65.6558 14.8954C65.6609 14.914 65.6637 14.9299 65.6637 14.943V15.3682C65.6637 15.3813 65.6586 15.3987 65.6478 15.4198C65.6399 15.4385 65.62 15.4476 65.5882 15.4476H58.7467C58.7149 15.4476 58.6939 15.4027 58.6831 15.3125C58.6752 15.2223 58.6712 15.1377 58.6712 15.0583ZM63.3633 8.0459L63.3832 8.33593C63.3912 8.38877 63.4059 8.43645 63.4269 8.47896C63.4508 8.52147 63.4984 8.54531 63.5699 8.55047C63.6283 8.55842 63.7158 8.57034 63.8322 8.58623C63.9486 8.60212 64.1103 8.61007 64.3169 8.61007C64.8862 8.61007 65.355 8.52266 65.7233 8.34785C66.0916 8.17304 66.3816 7.93863 66.5934 7.64463C66.8079 7.35063 66.9561 7.01292 67.0384 6.63151C67.1178 6.2501 67.1576 5.85161 67.1576 5.43564C67.1576 5.00377 67.09 4.59336 66.9549 4.204C66.8171 3.81743 66.628 3.48211 66.3868 3.19883C66.1433 2.91278 65.8516 2.68631 65.5127 2.51945C65.1739 2.3498 64.8004 2.26518 64.3924 2.26518C64.3022 2.26518 64.2322 2.26637 64.1818 2.26915C64.1289 2.27431 64.0785 2.27829 64.0308 2.28107C63.9804 2.28385 63.9247 2.28623 63.8639 2.28901C63.8032 2.29179 63.7169 2.29696 63.6057 2.3049C63.5688 2.3049 63.5195 2.31285 63.4587 2.32874C63.3951 2.34464 63.3633 2.38834 63.3633 2.45985V8.0459ZM77.1974 3.25445C77.1974 3.11937 77.1695 3.04388 77.1139 3.02799C77.0583 3.0121 76.992 2.9974 76.9153 2.98429H73.6256C73.3872 3.03475 73.2005 3.1301 73.0654 3.27035C72.9303 3.40821 72.8231 3.5711 72.7436 3.75903C72.6669 3.94695 72.6085 4.14957 72.5688 4.3669C72.5319 4.58144 72.4905 4.78923 72.4456 4.99066C72.4325 5.04906 72.419 5.11899 72.4059 5.20123C72.3928 5.28069 72.3793 5.32717 72.3662 5.34028C72.3531 5.35896 72.3304 5.36809 72.2986 5.36809H71.9768C71.9399 5.36809 71.9212 5.35618 71.9212 5.33234V5.01052L72.2788 1.69306C72.2919 1.62155 72.3213 1.55401 72.3662 1.49044C72.4111 1.42409 72.4826 1.39111 72.5807 1.39111C72.6256 1.39111 72.6693 1.40423 72.7118 1.43084C72.7543 1.45746 72.7941 1.48766 72.831 1.52222C72.8708 1.55917 72.9077 1.59374 72.9423 1.62552C72.9792 1.6573 73.0166 1.67995 73.0535 1.69306C73.133 1.72485 73.2057 1.7459 73.272 1.75663C73.3408 1.76736 73.4178 1.77252 73.5025 1.77252H83.6654C83.75 1.77252 83.8271 1.76736 83.8958 1.75663C83.9622 1.7459 84.0349 1.72485 84.1144 1.69306C84.1513 1.67995 84.1887 1.6573 84.2256 1.62552C84.2602 1.59374 84.2971 1.55917 84.3369 1.52222C84.3738 1.48766 84.4135 1.45746 84.456 1.43084C84.4986 1.40423 84.5423 1.39111 84.5871 1.39111C84.6853 1.39111 84.7568 1.42409 84.8017 1.49044C84.8466 1.55401 84.876 1.62155 84.8891 1.69306L85.2467 5.01052V5.33234C85.2467 5.35618 85.228 5.36809 85.191 5.36809H84.8692C84.8374 5.36809 84.8148 5.35896 84.8017 5.34028C84.7886 5.32717 84.7751 5.28069 84.762 5.20123C84.7488 5.11899 84.7353 5.04906 84.7222 4.99066C84.6773 4.78923 84.636 4.58144 84.5991 4.3669C84.5593 4.14957 84.5009 3.94695 84.4243 3.75903C84.3448 3.5711 84.2375 3.40821 84.1024 3.27035C83.9674 3.1301 83.7806 3.03475 83.5423 2.98429H80.2407C80.164 2.9974 80.0977 3.0121 80.042 3.02799C79.9892 3.04388 79.9626 3.11937 79.9626 3.25445V13.5565C79.9626 13.7499 80.0102 13.9232 80.1056 14.0769C80.2037 14.2279 80.3348 14.3618 80.4989 14.4782C80.663 14.5946 80.8577 14.6888 81.083 14.7603C81.3054 14.8318 81.5426 14.8795 81.7941 14.9033C81.8656 14.9113 81.9558 14.9152 82.0643 14.9152C82.1755 14.9152 82.2697 14.9152 82.3464 14.9152C82.3782 14.9152 82.3992 14.9244 82.4099 14.943C82.4207 14.9617 82.4258 14.9776 82.4258 14.9907V15.3682C82.4258 15.3813 82.4207 15.3987 82.4099 15.4198C82.3992 15.4385 82.3782 15.4476 82.3464 15.4476H74.8096C74.7778 15.4476 74.7567 15.4385 74.746 15.4198C74.7381 15.3987 74.7341 15.3813 74.7341 15.3682V14.9907C74.7341 14.9776 74.7381 14.9617 74.746 14.943C74.7567 14.9244 74.7778 14.9152 74.8096 14.9152C74.8811 14.9152 74.9737 14.9152 75.0877 14.9152C75.2017 14.9152 75.2931 14.9113 75.3618 14.9033C75.6161 14.8795 75.8545 14.8318 76.077 14.7603C76.2995 14.6888 76.4929 14.5946 76.657 14.4782C76.8239 14.3618 76.955 14.2279 77.0504 14.0769C77.1485 13.9232 77.1974 13.7499 77.1974 13.5565V3.25445Z" fill="#1C4B82"/>
<path d="M6.60095 30.7437V30.4616C6.60095 30.4564 6.60492 30.4429 6.61287 30.4218C6.61804 30.398 6.64068 30.3861 6.68041 30.3861H6.89098C7.16393 30.3674 7.44204 30.3555 7.72531 30.3503C8.01137 30.3475 8.27081 30.3134 8.50402 30.247C8.73446 30.1783 8.92516 30.0575 9.07613 29.8855C9.22433 29.7158 9.29862 29.4496 9.29862 29.0869V19.1544C9.29862 18.9029 9.24697 18.6975 9.14367 18.5386C9.04038 18.3797 8.9041 18.2513 8.73446 18.1532C8.56759 18.0578 8.37689 17.9851 8.16234 17.9347C7.95058 17.887 7.73445 17.8473 7.51474 17.8155H7.30815C7.27636 17.8155 7.25531 17.8064 7.24458 17.7877C7.23663 17.7666 7.23266 17.7491 7.23266 17.736V17.3586C7.23266 17.3455 7.23663 17.3296 7.24458 17.3109C7.25531 17.2922 7.27636 17.2831 7.30815 17.2831H16.9705C17.0869 17.2831 17.1703 17.303 17.2208 17.3427C17.2736 17.3852 17.307 17.4778 17.3201 17.6208L17.4949 20.7237C17.4949 20.7583 17.4671 20.7833 17.4115 20.7992C17.3559 20.8151 17.3054 20.8231 17.2605 20.8231C17.2101 20.8231 17.1584 20.8163 17.1056 20.8032C17.0551 20.7901 17.0194 20.7702 16.9983 20.7436C16.9534 20.68 16.9216 20.5847 16.903 20.4575C16.8843 20.3332 16.8632 20.1925 16.8394 20.0364C16.8155 19.8803 16.7838 19.7186 16.744 19.5517C16.7015 19.382 16.638 19.2271 16.5533 19.0869C16.4687 18.9438 16.3535 18.8195 16.2077 18.7134C16.0619 18.6049 15.8767 18.5318 15.6515 18.4949H12.187C12.1048 18.4949 12.0638 18.5374 12.0638 18.622V23.2466C12.0638 23.3102 12.0956 23.3419 12.1592 23.3419H14.9323C15.094 23.3419 15.2542 23.3221 15.4131 23.2823C15.572 23.2398 15.7111 23.1632 15.8302 23.0519C15.9494 22.9435 16.046 22.7897 16.1203 22.591C16.1946 22.3952 16.2315 22.1421 16.2315 21.8322C16.2315 21.7794 16.2581 21.7527 16.311 21.7527H16.6884C16.7413 21.7527 16.7679 21.7794 16.7679 21.8322V26.274C16.7679 26.3058 16.7571 26.3269 16.7361 26.3376C16.7174 26.3455 16.7015 26.3495 16.6884 26.3495H16.311C16.2792 26.3495 16.2581 26.3404 16.2474 26.3217C16.2367 26.303 16.2315 26.2871 16.2315 26.274C16.2315 25.9113 16.1946 25.6185 16.1203 25.396C16.046 25.1735 15.9482 24.9987 15.8263 24.8716C15.7019 24.7444 15.5613 24.661 15.4051 24.6213C15.2462 24.5787 15.0793 24.5577 14.9045 24.5577H12.1592C12.0956 24.5577 12.0638 24.5895 12.0638 24.653V28.8922C12.0638 29.0802 12.0928 29.2311 12.1512 29.3452C12.2096 29.4564 12.2875 29.541 12.3856 29.5994C12.4862 29.6578 12.6014 29.696 12.7313 29.7146C12.8612 29.7357 12.9975 29.7464 13.1405 29.7464H15.7865C16.1628 29.7464 16.4766 29.6602 16.7281 29.4882C16.9796 29.3162 17.1838 29.108 17.34 28.8644C17.4937 28.6181 17.6074 28.3626 17.6817 28.0976C17.756 27.8326 17.8036 27.6062 17.8247 27.4182C17.8378 27.3336 17.8803 27.2673 17.9518 27.2196C18.0206 27.1719 18.1016 27.1481 18.1942 27.1481C18.226 27.1481 18.2645 27.16 18.3094 27.1838C18.3543 27.2105 18.3769 27.2395 18.3769 27.2712L18.0551 30.8231C18.0444 30.8549 18.0273 30.8855 18.0035 30.9145C17.9796 30.9435 17.9518 30.9582 17.92 30.9582H6.68041C6.64068 30.9582 6.61804 30.9463 6.61287 30.9224C6.60492 30.9014 6.60095 30.8867 6.60095 30.8787V30.7437ZM19.4814 30.8787V30.4536C19.4814 30.4405 19.4866 30.4246 19.4973 30.406C19.5081 30.3873 19.5291 30.3781 19.5609 30.3781C19.9872 30.3781 20.3185 30.3277 20.5541 30.2272C20.7897 30.1266 20.9646 29.9876 21.0786 29.81C21.1926 29.6324 21.2613 29.4206 21.2852 29.1743C21.3118 28.928 21.3317 28.663 21.3448 28.3797C21.3845 27.5454 21.431 26.7349 21.4838 25.9482C21.5394 25.1616 21.5939 24.3896 21.6467 23.632C21.6972 22.8719 21.7421 22.1195 21.7818 21.3753C21.8215 20.6312 21.8414 19.8842 21.8414 19.1345V18.777C21.8414 18.626 21.7925 18.4949 21.6944 18.3836C21.5963 18.2696 21.481 18.1743 21.3487 18.0976C21.2164 18.0181 21.0826 17.9597 20.9475 17.9228C20.8124 17.883 20.7051 17.8632 20.6257 17.8632C20.5752 17.8632 20.5502 17.8381 20.5502 17.7877V17.3586C20.5502 17.3455 20.553 17.3296 20.5581 17.3109C20.5661 17.2922 20.5887 17.2831 20.6257 17.2831H24.0623C24.131 17.2938 24.1894 17.3177 24.2371 17.3546C24.282 17.3892 24.3233 17.4353 24.3603 17.4937L28.5796 26.9018C28.6245 27.013 28.6829 27.0686 28.7544 27.0686C28.8259 27.0686 28.8776 27.0527 28.9094 27.0209C28.9439 26.9892 28.9702 26.9467 28.9888 26.8938L33.1605 17.6685C33.2241 17.5465 33.2876 17.4512 33.3512 17.3824C33.4175 17.3161 33.4823 17.2831 33.5459 17.2831H36.9627C36.9996 17.2831 37.0222 17.2922 37.0302 17.3109C37.0354 17.3296 37.0381 17.3455 37.0381 17.3586V17.7877C37.0381 17.7984 37.0342 17.8143 37.0262 17.8354C37.0155 17.854 36.9944 17.8632 36.9627 17.8632C36.9495 17.8632 36.8725 17.8763 36.7322 17.9029C36.5944 17.9295 36.4434 17.9796 36.2793 18.0539C36.1124 18.1282 35.9615 18.2339 35.8264 18.3717C35.6913 18.512 35.6237 18.6947 35.6237 18.92L36.1839 29.2498C36.1919 29.4377 36.2423 29.5966 36.3349 29.7266C36.4303 29.8565 36.5455 29.9638 36.6806 30.0484C36.8156 30.1306 36.9599 30.1926 37.1136 30.2351C37.2646 30.2776 37.4064 30.3106 37.5387 30.3344C37.671 30.3555 37.7839 30.3674 37.8764 30.3702C37.9718 30.3754 38.0222 30.3781 38.0274 30.3781C38.0592 30.3781 38.0803 30.3873 38.091 30.406C38.1017 30.4246 38.1069 30.4405 38.1069 30.4536V30.8787C38.1069 30.8918 38.1017 30.9093 38.091 30.9304C38.0803 30.9491 38.0592 30.9582 38.0274 30.9582H31.6468C31.5939 30.9582 31.5673 30.9316 31.5673 30.8787V30.4536C31.5673 30.4032 31.5939 30.3781 31.6468 30.3781C31.8005 30.3781 31.9765 30.369 32.1752 30.3503C32.371 30.3344 32.5606 30.2975 32.7433 30.2391C32.9233 30.1807 33.0743 30.0961 33.1962 29.9848C33.3206 29.8708 33.383 29.7198 33.383 29.5319L32.938 21.6057C32.9301 21.5422 32.913 21.5104 32.8863 21.5104C32.8625 21.5104 32.8375 21.5394 32.8109 21.5978L28.5597 30.7913C28.528 30.8628 28.4843 30.9093 28.4286 30.9304C28.3758 30.9491 28.2804 30.9582 28.1426 30.9582C27.9121 30.9582 27.7401 30.9514 27.6261 30.9383C27.5121 30.9252 27.4354 30.8736 27.3957 30.7834L23.2637 21.6773C23.2451 21.6296 23.2308 21.595 23.22 21.574C23.2121 21.5501 23.195 21.5382 23.1684 21.5382C23.1235 21.5382 23.1008 21.5807 23.1008 21.6653C23.1008 21.8588 23.0917 22.1433 23.073 22.5195C23.052 22.8958 23.0254 23.3181 22.9936 23.7869C22.9618 24.2557 22.93 24.7512 22.8982 25.2728C22.8637 25.7973 22.8307 26.3058 22.7989 26.7985C22.7671 27.2883 22.7421 27.7452 22.7234 28.1691C22.7023 28.5931 22.6916 28.9411 22.6916 29.214V29.6113C22.7182 29.7333 22.783 29.843 22.8863 29.9411C22.9896 30.0365 23.1195 30.1171 23.2757 30.1835C23.4294 30.247 23.6002 30.2947 23.7882 30.3265C23.9761 30.3611 24.1735 30.3781 24.3801 30.3781C24.4119 30.3781 24.4306 30.3873 24.4358 30.406C24.4385 30.4246 24.4397 30.4405 24.4397 30.4536V30.8787C24.4397 30.9316 24.4199 30.9582 24.3801 30.9582H19.5609C19.5081 30.9582 19.4814 30.9316 19.4814 30.8787ZM46.1562 30.9582H39.4815C39.4311 30.9582 39.406 30.9264 39.406 30.8628V30.4536C39.406 30.4485 39.4088 30.4338 39.414 30.4099C39.4219 30.3889 39.4446 30.3781 39.4815 30.3781C39.7012 30.3781 39.9066 30.3452 40.0974 30.2788C40.2908 30.2152 40.4577 30.1278 40.5979 30.0166C40.741 29.9081 40.855 29.7754 40.9396 29.6193C41.0219 29.4632 41.0628 29.2947 41.0628 29.1147V19.2617C41.0628 18.9387 41.031 18.6844 40.9674 18.4988C40.9039 18.3133 40.8085 18.1743 40.6814 18.0817C40.5542 17.9891 40.3953 17.9307 40.2046 17.9069C40.0139 17.8858 39.7926 17.8751 39.5411 17.8751H39.1041C39.0326 17.8751 38.9809 17.8342 38.9492 17.7519C38.9174 17.6725 38.9015 17.6037 38.9015 17.5453C38.9015 17.5108 38.9082 17.4619 38.9213 17.3983C38.9345 17.332 38.9702 17.2938 39.0286 17.2831C39.0338 17.2831 39.0552 17.2831 39.0922 17.2831C39.1267 17.2831 39.1887 17.2803 39.2789 17.2752C39.3691 17.2724 39.4907 17.27 39.6444 17.2672C39.7954 17.2644 39.9941 17.2593 40.2404 17.2513C40.5952 17.2462 40.9754 17.2366 41.3806 17.2235C41.7831 17.2104 42.1923 17.1969 42.6083 17.1838C43.0215 17.1707 43.4295 17.1599 43.832 17.152C44.2372 17.1413 44.6174 17.1361 44.9722 17.1361H46.3429C46.8594 17.1361 47.3628 17.2235 47.8527 17.3983C48.3453 17.5731 48.7823 17.8302 49.1637 18.1691C49.5452 18.508 49.8523 18.9307 50.0855 19.4365C50.3187 19.9399 50.4351 20.5211 50.4351 21.1806C50.4351 21.5938 50.3727 21.9899 50.2484 22.3686C50.1264 22.7472 49.9611 23.0956 49.7518 23.4135C49.54 23.7285 49.2976 24.0146 49.0247 24.2716C48.7494 24.5259 48.4605 24.7404 48.1586 24.9153C47.8594 25.0901 47.5547 25.2224 47.2448 25.3126C46.9718 25.3841 46.7164 25.4198 46.478 25.4198C46.4383 25.4198 46.4025 25.4198 46.3707 25.4198L44.0505 25.3046C44.0453 25.3046 44.0199 25.3046 43.975 25.3046C43.9301 25.3046 43.8967 25.3114 43.8757 25.3245C43.857 25.3352 43.8451 25.3471 43.8399 25.3602C43.832 25.3733 43.828 25.4 43.828 25.4397V29.0869C43.828 29.3384 43.8983 29.5466 44.0386 29.7107C44.1764 29.8775 44.3564 30.0086 44.5789 30.104C44.8042 30.2021 45.0557 30.2721 45.3338 30.3146C45.6119 30.3571 45.886 30.3781 46.1562 30.3781C46.1959 30.3781 46.2186 30.3873 46.2237 30.406C46.2317 30.4246 46.2356 30.4405 46.2356 30.4536V30.8787C46.2356 30.8918 46.2305 30.9093 46.2197 30.9304C46.209 30.9491 46.188 30.9582 46.1562 30.9582ZM43.828 23.918L43.8479 24.2081C43.8558 24.2585 43.8705 24.3046 43.8916 24.3471C43.9154 24.3896 43.9619 24.4135 44.0306 24.4186C44.0572 24.4186 44.1049 24.4226 44.1737 24.4305C44.2424 24.4357 44.3218 24.4425 44.412 24.4504C44.5022 24.4556 44.6 24.4623 44.706 24.4703C44.8121 24.4754 44.9178 24.4782 45.0239 24.4782C45.4557 24.4782 45.8344 24.3908 46.1602 24.216C46.4887 24.0412 46.7601 23.7976 46.9746 23.485C47.1919 23.1699 47.3548 22.7976 47.4633 22.3686C47.5694 21.9395 47.6222 21.4655 47.6222 20.9462C47.6222 19.8815 47.4089 19.1 46.9826 18.6021C46.5563 18.1043 45.9285 17.8552 45.0994 17.8552C45.0092 17.8552 44.9257 17.8564 44.8491 17.8592C44.7696 17.862 44.6913 17.8644 44.6147 17.8671C44.538 17.8723 44.4557 17.8763 44.3683 17.8791C44.2809 17.8818 44.1816 17.8858 44.0704 17.891C44.0334 17.891 43.9829 17.9001 43.9194 17.9188C43.8586 17.9347 43.828 17.9772 43.828 18.0459V23.918ZM56.343 29.1147C56.343 29.3344 56.3759 29.5188 56.4423 29.667C56.511 29.8152 56.608 29.9359 56.7323 30.0285C56.8595 30.1187 57.0156 30.1823 57.2011 30.2192C57.3839 30.2589 57.5893 30.2788 57.817 30.2788C57.8674 30.2788 57.8924 30.3054 57.8924 30.3583V30.8787C57.8924 30.8998 57.8897 30.9185 57.8845 30.9344C57.8765 30.9503 57.8539 30.9582 57.817 30.9582H52.0839C52.0521 30.9582 52.0311 30.9491 52.0203 30.9304C52.0096 30.9093 52.0044 30.8918 52.0044 30.8787V30.3583C52.0044 30.3452 52.0096 30.3277 52.0203 30.3066C52.0311 30.288 52.0521 30.2788 52.0839 30.2788C52.3092 30.2788 52.5142 30.2641 52.6997 30.2351C52.8825 30.2061 53.0386 30.1437 53.1685 30.0484C53.2985 29.9502 53.399 29.8112 53.4705 29.6312C53.542 29.4485 53.5778 29.2021 53.5778 28.8922V19.1226C53.5778 18.9029 53.5432 18.7186 53.4745 18.5704C53.4081 18.4222 53.3116 18.303 53.1844 18.2128C53.0573 18.1226 52.9023 18.0578 52.7196 18.0181C52.534 17.9812 52.329 17.9625 52.1038 17.9625C52.0509 17.9625 52.0243 17.9359 52.0243 17.883V17.3586C52.0243 17.3081 52.0509 17.2831 52.1038 17.2831H57.8368C57.8686 17.2831 57.8885 17.2922 57.8964 17.3109C57.9071 17.3296 57.9123 17.3455 57.9123 17.3586V17.883C57.9123 17.8961 57.9071 17.912 57.8964 17.9307C57.8885 17.9518 57.8686 17.9625 57.8368 17.9625C57.6092 17.9625 57.4038 17.9772 57.221 18.0062C57.0355 18.0328 56.8781 18.0948 56.7482 18.1929C56.6183 18.2911 56.5178 18.4301 56.4463 18.6101C56.3775 18.7901 56.343 19.0364 56.343 19.3491V29.1147ZM59.2115 30.5688V30.4536C59.2115 30.4485 59.2154 30.4338 59.2234 30.4099C59.2286 30.3889 59.2512 30.3781 59.2909 30.3781C59.3279 30.3781 59.3891 30.3714 59.4737 30.3583C59.5583 30.3452 59.6457 30.3317 59.7359 30.3185C59.8261 30.3054 59.9107 30.2907 59.9902 30.2748C60.0669 30.2589 60.1213 30.247 60.1531 30.2391C60.5214 30.1568 60.778 30.0206 60.9238 29.8299C61.0696 29.6392 61.1424 29.4008 61.1424 29.1147V19.2617C61.1424 18.9387 61.0748 18.6828 60.9397 18.4949C60.8046 18.307 60.6469 18.1663 60.4669 18.0737C60.2894 17.9784 60.1185 17.92 59.9544 17.8989C59.7903 17.8751 59.6791 17.8632 59.6207 17.8632H59.2512C59.2194 17.8632 59.1984 17.854 59.1876 17.8354C59.1797 17.8143 59.1757 17.7984 59.1757 17.7877V17.3586C59.1757 17.3455 59.1785 17.3308 59.1837 17.3149C59.1888 17.299 59.2115 17.2883 59.2512 17.2831C59.2564 17.2831 59.2711 17.2831 59.2949 17.2831C59.3187 17.2831 59.3652 17.2803 59.434 17.2752C59.5055 17.2724 59.61 17.27 59.7478 17.2672C59.8829 17.2644 60.0736 17.2593 60.3199 17.2513C60.6747 17.2462 61.0538 17.2366 61.4562 17.2235C61.8615 17.2104 62.2707 17.1969 62.6839 17.1838C63.0999 17.1707 63.5091 17.1599 63.9115 17.152C64.3168 17.1413 64.697 17.1361 65.0518 17.1361H66.0331C66.5417 17.1361 67.0621 17.2235 67.5945 17.3983C68.1241 17.5731 68.6037 17.8302 69.0327 18.1691C69.4646 18.508 69.8166 18.9307 70.0896 19.4365C70.3649 19.9399 70.5028 20.5211 70.5028 21.1806C70.5028 21.6069 70.4443 21.9871 70.3279 22.3209C70.2115 22.6546 70.051 22.9486 69.8472 23.2029C69.6434 23.4599 69.401 23.6848 69.1201 23.8783C68.8393 24.0718 68.5333 24.2426 68.2024 24.3908L71.1424 29.0472C71.3939 29.4473 71.6879 29.8112 72.0244 30.1398C72.3609 30.4655 72.7527 30.6932 73.2004 30.8231C73.2509 30.8362 73.2811 30.8537 73.2918 30.8748C73.3025 30.8986 73.3077 30.9264 73.3077 30.9582C73.3077 31.0563 73.2811 31.1211 73.2282 31.1529C73.1778 31.1847 73.0971 31.2006 72.9859 31.2006C72.7157 31.2006 72.407 31.1835 72.0602 31.1489C71.7133 31.112 71.3649 31.0535 71.0153 30.9741C70.6684 30.8918 70.3371 30.7862 70.022 30.6562C69.7093 30.5263 69.4459 30.365 69.2314 30.1715C69.0248 29.9916 68.8154 29.7623 68.6037 29.4842C68.3891 29.2061 68.1734 28.9069 67.9561 28.5863C67.7387 28.2657 67.5258 27.9335 67.3164 27.5891C67.107 27.2422 66.9032 26.9029 66.7046 26.572C66.5087 26.2434 66.3192 25.9375 66.1364 25.6542C65.9564 25.3682 65.792 25.1246 65.6438 24.9232L64.1301 24.8199C64.1249 24.8199 64.0995 24.8199 64.0546 24.8199C64.0069 24.8199 63.9739 24.8251 63.9552 24.8358C63.9366 24.8489 63.9235 24.8624 63.9155 24.8755C63.9103 24.8886 63.9076 24.9153 63.9076 24.955V29.0869C63.9076 29.2617 63.9302 29.4139 63.9751 29.5438C64.02 29.6709 64.0955 29.7822 64.2016 29.8775C64.31 29.9701 64.4491 30.0456 64.6187 30.104C64.7908 30.1624 65.0001 30.2073 65.2465 30.2391C65.2834 30.247 65.3406 30.2578 65.4173 30.2709C65.4916 30.284 65.5723 30.2987 65.6597 30.3146C65.7471 30.3305 65.8317 30.3452 65.9139 30.3583C65.9986 30.3714 66.0701 30.3781 66.1285 30.3781C66.1682 30.3781 66.1908 30.3873 66.196 30.406C66.204 30.4246 66.2079 30.4405 66.2079 30.4536V30.8787C66.2079 30.8918 66.2028 30.9093 66.192 30.9304C66.1813 30.9491 66.1603 30.9582 66.1285 30.9582H59.2909C59.2591 30.9582 59.2381 30.9133 59.2274 30.8231C59.2166 30.7329 59.2115 30.6483 59.2115 30.5688ZM63.9076 23.5565L63.9274 23.8465C63.9326 23.8994 63.9473 23.947 63.9711 23.9895C63.9922 24.0321 64.0387 24.0559 64.1102 24.0611C64.1686 24.069 64.256 24.0809 64.3724 24.0968C64.4888 24.1127 64.6505 24.1207 64.8571 24.1207C65.4264 24.1207 65.8953 24.0332 66.2636 23.8584C66.6319 23.6836 66.9231 23.4492 67.1376 23.1552C67.3494 22.8612 67.4964 22.5235 67.5786 22.1421C67.6609 21.7607 67.7018 21.3622 67.7018 20.9462C67.7018 20.5144 67.6331 20.1039 67.4952 19.7146C67.3601 19.328 67.1706 18.9927 66.927 18.7094C66.6859 18.4234 66.3959 18.1969 66.057 18.03C65.7181 17.8604 65.3446 17.7758 64.9366 17.7758C64.8464 17.7758 64.7749 17.777 64.722 17.7797C64.6692 17.7849 64.6187 17.7889 64.5711 17.7917C64.5234 17.7944 64.469 17.7968 64.4082 17.7996C64.3446 17.8024 64.2584 17.8075 64.1499 17.8155C64.1102 17.8155 64.0597 17.8234 63.9989 17.8393C63.9382 17.8552 63.9076 17.8989 63.9076 17.9704V23.5565ZM73.4904 30.7437V30.4616C73.4904 30.4564 73.4932 30.4429 73.4984 30.4218C73.5063 30.398 73.5302 30.3861 73.5699 30.3861H73.7805C74.0534 30.3674 74.3315 30.3555 74.6148 30.3503C74.9009 30.3475 75.1603 30.3134 75.3935 30.247C75.624 30.1783 75.8147 30.0575 75.9656 29.8855C76.1138 29.7158 76.1881 29.4496 76.1881 29.0869V19.1544C76.1881 18.9029 76.1365 18.6975 76.0332 18.5386C75.9299 18.3797 75.7936 18.2513 75.624 18.1532C75.4571 18.0578 75.2664 17.9851 75.0518 17.9347C74.8401 17.887 74.6239 17.8473 74.4042 17.8155H74.1976C74.1659 17.8155 74.1448 17.8064 74.1341 17.7877C74.1261 17.7666 74.1222 17.7491 74.1222 17.736V17.3586C74.1222 17.3455 74.1261 17.3296 74.1341 17.3109C74.1448 17.2922 74.1659 17.2831 74.1976 17.2831H83.86C83.9764 17.2831 84.0598 17.303 84.1103 17.3427C84.1631 17.3852 84.1965 17.4778 84.2096 17.6208L84.3844 20.7237C84.3844 20.7583 84.3566 20.7833 84.301 20.7992C84.2454 20.8151 84.1949 20.8231 84.15 20.8231C84.0996 20.8231 84.0479 20.8163 83.9951 20.8032C83.9446 20.7901 83.9089 20.7702 83.8878 20.7436C83.8429 20.68 83.8111 20.5847 83.7924 20.4575C83.7714 20.3332 83.7499 20.1925 83.7289 20.0364C83.705 19.8803 83.6733 19.7186 83.6335 19.5517C83.591 19.382 83.5275 19.2271 83.4428 19.0869C83.3582 18.9438 83.243 18.8195 83.0972 18.7134C82.9514 18.6049 82.7662 18.5318 82.541 18.4949H79.0765C78.9943 18.4949 78.9533 18.5374 78.9533 18.622V23.2466C78.9533 23.3102 78.9851 23.3419 79.0487 23.3419H81.8218C81.9835 23.3419 82.1437 23.3221 82.3026 23.2823C82.4615 23.2398 82.6005 23.1632 82.7197 23.0519C82.8389 22.9435 82.9355 22.7897 83.0098 22.591C83.0841 22.3952 83.121 22.1421 83.121 21.8322C83.121 21.7794 83.1476 21.7527 83.2005 21.7527H83.5779C83.6308 21.7527 83.6574 21.7794 83.6574 21.8322V26.274C83.6574 26.3058 83.6466 26.3269 83.6256 26.3376C83.6069 26.3455 83.591 26.3495 83.5779 26.3495H83.2005C83.1687 26.3495 83.1476 26.3404 83.1369 26.3217C83.1262 26.303 83.121 26.2871 83.121 26.274C83.121 25.9113 83.0841 25.6185 83.0098 25.396C82.9355 25.1735 82.8377 24.9987 82.7158 24.8716C82.5914 24.7444 82.4508 24.661 82.2946 24.6213C82.1357 24.5787 81.9688 24.5577 81.794 24.5577H79.0487C78.9851 24.5577 78.9533 24.5895 78.9533 24.653V28.8922C78.9533 29.0802 78.9823 29.2311 79.0407 29.3452C79.0964 29.4564 79.1746 29.541 79.2751 29.5994C79.3757 29.6578 79.4909 29.696 79.6208 29.7146C79.7507 29.7357 79.887 29.7464 80.03 29.7464H82.676C83.0523 29.7464 83.3661 29.6602 83.6176 29.4882C83.8691 29.3162 84.0733 29.108 84.2295 28.8644C84.3832 28.6181 84.4969 28.3626 84.5712 28.0976C84.6455 27.8326 84.6931 27.6062 84.7142 27.4182C84.7273 27.3336 84.7686 27.2673 84.8373 27.2196C84.9089 27.1719 84.9911 27.1481 85.0837 27.1481C85.1155 27.1481 85.154 27.16 85.1989 27.1838C85.2438 27.2105 85.2664 27.2395 85.2664 27.2712L84.9446 30.8231C84.9315 30.8549 84.914 30.8855 84.893 30.9145C84.8691 30.9435 84.8413 30.9582 84.8095 30.9582H73.5699C73.5302 30.9582 73.5063 30.9463 73.4984 30.9224C73.4932 30.9014 73.4904 30.8867 73.4904 30.8787V30.7437Z" fill="#1C4B82"/>
</g>
</g>
<g clip-path="url(#clip7_24_3395)">
<g clip-path="url(#clip8_24_3395)">
<path d="M36.9972 40.547H36.5747C36.1465 40.547 35.8366 40.4467 35.645 40.2461C35.4534 40.0467 35.3577 39.7723 35.3577 39.423C35.3577 39.0567 35.458 38.775 35.6585 38.5778C35.858 38.3806 36.1634 38.282 36.5747 38.282H37.0057C37.4283 38.282 37.8086 38.2933 38.1466 38.3158C38.4847 38.3384 38.7636 38.3609 38.9833 38.3834V37.8256C38.9833 37.7749 38.9777 37.7225 38.9664 37.6684C38.9552 37.6155 38.9214 37.5721 38.865 37.5383C38.8087 37.5045 38.7129 37.4876 38.5777 37.4876H38.1551C37.541 37.4876 37.0282 37.4972 36.6169 37.5163C36.2056 37.5366 35.9267 37.5552 35.7802 37.5721L35.6873 36.9298C35.6873 36.8509 35.9014 36.803 36.3296 36.7861C36.7578 36.7692 37.4733 36.7608 38.4763 36.7608H38.8988C39.1805 36.7608 39.3975 36.8002 39.5496 36.8791C39.7017 36.958 39.8105 37.0566 39.8758 37.1749C39.94 37.2932 39.9795 37.4132 39.9941 37.5349C40.0077 37.6555 40.0144 37.758 40.0144 37.8425V40.547H39.3214L38.9918 40.378C38.7551 40.4174 38.4706 40.4552 38.1382 40.4912C37.8058 40.5284 37.4255 40.547 36.9972 40.547ZM36.7944 39.8202H38.7298C38.8537 39.8202 38.927 39.8089 38.9495 39.7864C38.9721 39.7638 38.9833 39.6934 38.9833 39.5751V38.9243H36.7944C36.6423 38.9243 36.5369 38.9609 36.4783 39.0342C36.4186 39.1074 36.3887 39.2229 36.3887 39.3807C36.3887 39.5385 36.4225 39.6511 36.4902 39.7188C36.5578 39.7864 36.6592 39.8202 36.7944 39.8202ZM42.1019 40.547H41.0708V35.8649L40.9863 35.1888H42.1019V40.547ZM44.2317 40.547H43.2006V35.8649L43.1161 35.1888H44.2317V40.547ZM47.6866 42.2035H47.4584C47.188 42.2035 46.9401 42.1725 46.7147 42.1105C46.4893 42.0485 46.3372 41.9922 46.2583 41.9415L46.5119 41.1809C46.6077 41.2203 46.7446 41.2671 46.9226 41.3212C47.0995 41.3741 47.3007 41.4006 47.5261 41.4006H47.619C47.8782 41.4006 48.1081 41.3234 48.3087 41.169C48.5081 41.0135 48.6614 40.8062 48.7684 40.547H48.3458L46.6894 36.7608H47.8726L48.8445 39.0934L49.0642 39.7019H49.1487L49.3685 39.0934L50.3573 36.7608H51.5067L51.3715 37.2763C51.2644 37.496 51.1422 37.7479 51.0047 38.0318C50.8661 38.3169 50.7235 38.6116 50.577 38.9159C50.4305 39.2201 50.2886 39.5131 50.1511 39.7948C50.0125 40.0765 49.8896 40.3273 49.7826 40.547C49.6192 40.8851 49.4406 41.178 49.2468 41.426C49.0518 41.6739 48.8293 41.8654 48.5791 42.0007C48.3278 42.1359 48.0303 42.2035 47.6866 42.2035ZM55.462 40.547H53.1294C52.7519 40.547 52.4713 40.4709 52.2876 40.3188C52.1051 40.1667 52.0138 39.9188 52.0138 39.5751V37.8425C52.0138 37.758 52.0205 37.6555 52.0341 37.5349C52.0487 37.4132 52.0882 37.2932 52.1524 37.1749C52.2177 37.0566 52.3276 36.958 52.482 36.8791C52.6375 36.8002 52.8533 36.7608 53.1294 36.7608H55.462C55.7437 36.7608 55.9606 36.8002 56.1127 36.8791C56.2649 36.958 56.373 37.0566 56.4373 37.1749C56.5026 37.2932 56.5421 37.4132 56.5556 37.5349C56.5702 37.6555 56.5776 37.758 56.5776 37.8425V39.4652C56.5776 39.5666 56.5702 39.6793 56.5556 39.8033C56.5421 39.9272 56.5015 40.0455 56.4339 40.1582C56.3663 40.2709 56.2564 40.3639 56.1043 40.4371C55.9522 40.5104 55.7381 40.547 55.462 40.547ZM53.4505 39.8202H55.1408C55.4169 39.8202 55.5549 39.7075 55.5549 39.4821V37.8256C55.5549 37.6003 55.4169 37.4876 55.1408 37.4876H53.4505C53.1801 37.4876 53.0449 37.6003 53.0449 37.8256V39.4821C53.0449 39.7075 53.1801 39.8202 53.4505 39.8202ZM59.0538 40.547H58.6228C58.3467 40.547 58.1309 40.5104 57.9754 40.4371C57.8211 40.3639 57.7112 40.2709 57.6458 40.1582C57.5816 40.0455 57.5422 39.9272 57.5275 39.8033C57.514 39.6793 57.5072 39.5666 57.5072 39.4652V36.7608H58.5383V39.4821C58.5327 39.6061 58.5732 39.6934 58.66 39.7441C58.7479 39.7948 58.8425 39.8202 58.944 39.8202H60.6174C60.7413 39.8202 60.8146 39.8089 60.8371 39.7864C60.8596 39.7638 60.8709 39.6906 60.8709 39.5666V36.7608H61.902V40.547H61.209L60.8878 40.378C60.6624 40.423 60.3959 40.4625 60.0883 40.4963C59.7818 40.5301 59.437 40.547 59.0538 40.547ZM65.8049 40.547H64.7738V36.7608H65.4668L65.8049 36.9298C66.0415 36.8847 66.326 36.8453 66.6584 36.8115C66.9909 36.7777 67.3712 36.7608 67.7994 36.7608H68.222C68.5037 36.7608 68.7206 36.8002 68.8727 36.8791C69.0249 36.958 69.1336 37.0566 69.199 37.1749C69.2632 37.2932 69.3026 37.4132 69.3173 37.5349C69.3308 37.6555 69.3376 37.758 69.3376 37.8425V40.547H68.3065V37.8256C68.3065 37.6003 68.1713 37.4876 67.9008 37.4876H66.0584C65.9513 37.4876 65.8826 37.4972 65.8522 37.5163C65.8206 37.5366 65.8049 37.589 65.8049 37.6735V40.547ZM73.0393 40.547H71.3405C71.0588 40.547 70.8419 40.5104 70.6898 40.4371C70.5377 40.3639 70.4289 40.2709 70.3636 40.1582C70.2993 40.0455 70.2599 39.9272 70.2452 39.8033C70.2317 39.6793 70.225 39.5666 70.225 39.4652V37.8425C70.225 37.758 70.2317 37.6555 70.2452 37.5349C70.2599 37.4132 70.2993 37.2932 70.3636 37.1749C70.4289 37.0566 70.5388 36.958 70.6932 36.8791C70.8487 36.8002 71.0645 36.7608 71.3405 36.7608H73.1576C73.5295 36.7608 73.8208 36.7957 74.0315 36.8655C74.2433 36.9365 74.3926 37.0509 74.4794 37.2087C74.5673 37.3664 74.6113 37.5777 74.6113 37.8425V39.0934H73.1323C72.6252 39.0934 72.2122 39.0821 71.8933 39.0595C71.5755 39.037 71.3631 39.0229 71.256 39.0173V39.4821C71.2504 39.7075 71.3856 39.8202 71.6617 39.8202H72.0927C72.397 39.8202 72.6939 39.8157 72.9835 39.8067C73.2742 39.7988 73.5407 39.7875 73.783 39.7728C74.0253 39.7593 74.2197 39.7469 74.3662 39.7357L74.7042 40.285C74.7042 40.4597 74.1492 40.547 73.0393 40.547ZM71.256 37.8256V38.3665H73.5802V37.8256C73.5802 37.7129 73.5672 37.6341 73.5413 37.589C73.5165 37.5439 73.4421 37.5157 73.3182 37.5045C73.1942 37.4932 72.9829 37.4876 72.6843 37.4876H71.6617C71.3913 37.4876 71.256 37.6003 71.256 37.8256ZM78.2792 40.547H76.5804C76.2987 40.547 76.0818 40.5104 75.9297 40.4371C75.7776 40.3639 75.6688 40.2709 75.6035 40.1582C75.5392 40.0455 75.4998 39.9272 75.4851 39.8033C75.4716 39.6793 75.4649 39.5666 75.4649 39.4652V37.8425C75.4649 37.758 75.4716 37.6555 75.4851 37.5349C75.4998 37.4132 75.5392 37.2932 75.6035 37.1749C75.6688 37.0566 75.7787 36.958 75.9331 36.8791C76.0886 36.8002 76.3044 36.7608 76.5804 36.7608H78.3975C78.7694 36.7608 79.0607 36.7957 79.2714 36.8655C79.4832 36.9365 79.6325 37.0509 79.7193 37.2087C79.8072 37.3664 79.8512 37.5777 79.8512 37.8425V39.0934H78.3722C77.8651 39.0934 77.4521 39.0821 77.1332 39.0595C76.8154 39.037 76.603 39.0229 76.4959 39.0173V39.4821C76.4903 39.7075 76.6255 39.8202 76.9016 39.8202H77.3326C77.6369 39.8202 77.9338 39.8157 78.2234 39.8067C78.5141 39.7988 78.7806 39.7875 79.0229 39.7728C79.2652 39.7593 79.4596 39.7469 79.6061 39.7357L79.9441 40.285C79.9441 40.4597 79.3891 40.547 78.2792 40.547ZM76.4959 37.8256V38.3665H78.8201V37.8256C78.8201 37.7129 78.8071 37.6341 78.7812 37.589C78.7564 37.5439 78.682 37.5157 78.5581 37.5045C78.4341 37.4932 78.2228 37.4876 77.9242 37.4876H76.9016C76.6312 37.4876 76.4959 37.6003 76.4959 37.8256ZM82.2412 40.547H81.8187C81.5369 40.547 81.32 40.5104 81.1679 40.4371C81.0158 40.3639 80.9076 40.2709 80.8434 40.1582C80.778 40.0455 80.7386 39.9272 80.725 39.8033C80.7104 39.6793 80.7031 39.5666 80.7031 39.4652V37.8425C80.7031 37.758 80.7104 37.6555 80.725 37.5349C80.7386 37.4132 80.778 37.2932 80.8434 37.1749C80.9076 37.0566 81.0175 36.958 81.173 36.8791C81.3273 36.8002 81.5426 36.7608 81.8187 36.7608H82.2497C82.768 36.7608 83.1867 36.7703 83.5056 36.7895C83.8233 36.8098 84.0667 36.8312 84.2358 36.8537V35.1888H85.2668V40.547H84.5738L84.2442 40.378C84.0076 40.4174 83.723 40.4552 83.3906 40.4912C83.0582 40.5284 82.6751 40.547 82.2412 40.547ZM82.1398 39.8202H83.9738C84.0921 39.8202 84.1653 39.8061 84.1935 39.7779C84.2217 39.7497 84.2358 39.6793 84.2358 39.5666V37.5467C84.0442 37.5355 83.8019 37.5225 83.5089 37.5079C83.216 37.4943 82.9033 37.4876 82.5708 37.4876H82.1398C81.8694 37.4876 81.7341 37.6003 81.7341 37.8256V39.4821C81.7341 39.7075 81.8694 39.8202 82.1398 39.8202Z" fill="#1C4B82"/>
</g>
</g>
</g>
</g>
<g clip-path="url(#clip9_24_3395)">
<g clip-path="url(#clip10_24_3395)">
<path d="M115.641 24.0046C119.434 19.8553 121.553 15.8679 122.719 12.3918C122.719 12.4023 122.719 12.4023 122.723 12.4093C122.723 12.4093 123.192 11.1854 123.56 9.25884C123.587 9.1307 123.606 9.01352 123.63 8.88406C123.658 8.72257 123.686 8.55624 123.711 8.38685C124.162 5.58128 124.012 3.36422 123.816 2.05777C123.878 1.99852 123.945 1.92479 124.008 1.84053C124.239 1.54958 124.338 1.24853 124.236 1.16822L124.113 1.07518L124.352 0.0276489L123.217 0.386627L123.066 0.274282C122.961 0.197484 122.695 0.372584 122.468 0.663102C122.422 0.725858 122.38 0.78598 122.345 0.845225C122.345 0.845225 118.187 0.974685 113.378 4.02908H113.386C106.661 8.1762 103.48 14.6975 103.48 14.6975C91.351 13.0694 88.6472 24.3614 88.6472 24.3614C112.289 22.9746 109.154 40.8371 109.154 40.8371C119.5 36.2981 115.641 24.0046 115.641 24.0046ZM114.86 17.8116C113.788 18.9921 111.981 19.3019 110.52 18.4598C108.846 17.4965 108.261 15.3918 109.213 13.7597C109.329 13.5565 109.466 13.3761 109.616 13.2098C110.684 12.0293 112.492 11.7208 113.956 12.5616C115.627 13.5214 116.215 15.6279 115.263 17.2621C115.144 17.4649 115.007 17.647 114.86 17.8116Z" fill="#1C4B82"/>
<path d="M97.9987 42.3033C103.834 40.1841 105.956 32.4801 105.956 32.4801C99.7571 35.2576 97.9987 42.3033 97.9987 42.3033Z" fill="#1C4B82"/>
<path d="M91.792 42.9594C99.5258 40.1051 102.303 29.6183 102.303 29.6183C94.0938 33.3626 91.792 42.9594 91.792 42.9594Z" fill="#1C4B82"/>
<path d="M90.6887 36.575C96.5241 34.4593 98.6468 26.7571 98.6468 26.7571C92.4507 29.5297 90.6887 36.575 90.6887 36.575Z" fill="#1C4B82"/>
</g>
</g>
</g>
</g>
</g>
<defs>
<clipPath id="clip0_24_3395">
<rect width="124.6" height="42.987" fill="white"/>
</clipPath>
<clipPath id="clip1_24_3395">
<rect width="124.104" height="42.9317" fill="white" transform="translate(0.248169 0.0276489)"/>
</clipPath>
<clipPath id="clip2_24_3395">
<rect width="124.104" height="42.9317" fill="white" transform="translate(0.248169 0.0276489)"/>
</clipPath>
<clipPath id="clip3_24_3395">
<rect width="85.0183" height="41.4199" fill="white" transform="translate(0.248169 0.783569)"/>
</clipPath>
<clipPath id="clip4_24_3395">
<rect width="85.0183" height="41.4199" fill="white" transform="translate(0.248169 0.783569)"/>
</clipPath>
<clipPath id="clip5_24_3395">
<rect width="85.0183" height="31.0246" fill="white" transform="translate(0.248169 0.783569)"/>
</clipPath>
<clipPath id="clip6_24_3395">
<rect width="85.0183" height="31.0246" fill="white" transform="translate(0.248169 0.783569)"/>
</clipPath>
<clipPath id="clip7_24_3395">
<rect width="49.9142" height="7.0147" fill="white" transform="translate(35.3522 35.1888)"/>
</clipPath>
<clipPath id="clip8_24_3395">
<rect width="49.9142" height="7.0147" fill="white" transform="translate(35.3522 35.1888)"/>
</clipPath>
<clipPath id="clip9_24_3395">
<rect width="35.7048" height="42.9317" fill="white" transform="translate(88.6472 0.0276489)"/>
</clipPath>
<clipPath id="clip10_24_3395">
<rect width="35.7048" height="42.9317" fill="white" transform="translate(88.6472 0.0276489)"/>
</clipPath>
</defs>
</svg>
