<svg xmlns="http://www.w3.org/2000/svg" version="1.1" xmlns:xlink="http://www.w3.org/1999/xlink" xmlns:svgjs="http://svgjs.dev/svgjs" width="1000" height="1000" viewBox="0 0 1000 1000"><rect width="1000" height="1000" fill="#000000"></rect><g transform="matrix(0.7,0,0,0.7,149.57575757575756,379.09478631620675)"><svg viewBox="0 0 396 137" data-background-color="#ffffff" preserveAspectRatio="xMidYMid meet" height="345" width="1000" xmlns="http://www.w3.org/2000/svg" xmlns:xlink="http://www.w3.org/1999/xlink"><defs></defs><g id="tight-bounds" transform="matrix(1,0,0,1,0.2400000000000091,0.08805082683093701)"><svg viewBox="0 0 395.52 136.8238983463381" height="136.8238983463381" width="395.52"><g><svg viewBox="0 0 577.3519933795876 199.72580514822099" height="136.8238983463381" width="395.52"><g transform="matrix(1,0,0,1,0,3.5166386338206053)"><svg viewBox="0 0 395.52 192.69252788057977" height="192.69252788057977" width="395.52"><g><svg viewBox="0 0 395.52 192.69252788057977" height="192.69252788057977" width="395.52"><g><svg viewBox="0 0 395.52 144.3316256076686" height="144.3316256076686" width="395.52"><g transform="matrix(1,0,0,1,0,0)"><svg width="395.52" viewBox="0.11999587714672089 -35.380001068115234 213.98997497558594 75.0300064086914" height="144.3316256076686" data-palette-color="#1c4b82"><svg></svg><svg></svg><g class="undefined-text-0" data-fill-palette-color="primary" id="text-0"><path d="M0.12-0.2v-0.95c0-0.127 0.067-0.19 0.2-0.19v0c0.307-0.02 0.667-0.067 1.08-0.14 0.42-0.073 0.843-0.227 1.27-0.46 0.433-0.233 0.853-0.583 1.26-1.05 0.407-0.467 0.75-1.107 1.03-1.92v0l9.81-28.46c0 0.013 0.003 0.003 0.01-0.03 0.007-0.033 0.01-0.067 0.01-0.1v0c0-0.113-0.043-0.253-0.13-0.42-0.087-0.173-0.13-0.3-0.13-0.38v0c0-0.08 0.03-0.12 0.09-0.12v0h7.08c0.033 0.013 0.08 0.027 0.14 0.04 0.053 0.02 0.097 0.07 0.13 0.15v0l10.33 28.98c0.16 0.453 0.313 0.843 0.46 1.17 0.147 0.327 0.323 0.617 0.53 0.87 0.2 0.253 0.457 0.48 0.77 0.68 0.307 0.207 0.703 0.417 1.19 0.63v0c0.233 0.113 0.543 0.233 0.93 0.36 0.393 0.133 0.767 0.2 1.12 0.2v0c0.087 0 0.14 0.023 0.16 0.07 0.027 0.047 0.04 0.097 0.04 0.15v0 0.92c0 0.033-0.013 0.077-0.04 0.13-0.02 0.047-0.073 0.07-0.16 0.07v0h-17.13c-0.087 0-0.14-0.023-0.16-0.07-0.027-0.053-0.04-0.097-0.04-0.13v0-0.95c0-0.033 0.013-0.073 0.04-0.12 0.02-0.047 0.073-0.07 0.16-0.07v0c0.06 0 0.123-0.003 0.19-0.01 0.067-0.013 0.117-0.02 0.15-0.02v0c0.18-0.013 0.437-0.03 0.77-0.05 0.333-0.013 0.693-0.04 1.08-0.08 0.393-0.04 0.79-0.107 1.19-0.2 0.4-0.087 0.76-0.217 1.08-0.39 0.327-0.167 0.597-0.39 0.81-0.67 0.213-0.273 0.32-0.613 0.32-1.02v0c0-0.1-0.017-0.217-0.05-0.35v0l-3.2-8.81c-0.013-0.033-0.043-0.107-0.09-0.22-0.04-0.113-0.103-0.23-0.19-0.35-0.093-0.127-0.207-0.237-0.34-0.33-0.14-0.1-0.307-0.15-0.5-0.15v0h-8.82c-0.207 0-0.383 0.05-0.53 0.15-0.147 0.093-0.27 0.197-0.37 0.31-0.1 0.12-0.177 0.237-0.23 0.35-0.06 0.113-0.09 0.177-0.09 0.19v0c-0.52 1.533-0.96 2.823-1.32 3.87-0.353 1.053-0.65 1.92-0.89 2.6-0.233 0.687-0.417 1.217-0.55 1.59-0.127 0.373-0.22 0.647-0.28 0.82-0.053 0.167-0.083 0.27-0.09 0.31-0.013 0.04-0.02 0.06-0.02 0.06v0c0 0.053 0.01 0.107 0.03 0.16 0.013 0.06 0.03 0.113 0.05 0.16v0c0.127 0.407 0.367 0.747 0.72 1.02 0.347 0.267 0.75 0.477 1.21 0.63 0.453 0.153 0.92 0.263 1.4 0.33 0.48 0.067 0.907 0.1 1.28 0.1v0h0.64c0.08 0 0.13 0.023 0.15 0.07 0.027 0.047 0.04 0.087 0.04 0.12v0 0.95c0 0.033-0.013 0.077-0.04 0.13-0.02 0.047-0.07 0.07-0.15 0.07v0h-13.21c-0.133 0-0.2-0.067-0.2-0.2zM15.99-26.39l-3.07 8.89c-0.033 0.08-0.06 0.16-0.08 0.24-0.013 0.08-0.02 0.16-0.02 0.24v0c0 0.1 0.023 0.18 0.07 0.24 0.047 0.053 0.143 0.08 0.29 0.08v0h7.33c0.18 0 0.297-0.037 0.35-0.11 0.06-0.073 0.09-0.16 0.09-0.26v0c0-0.08-0.01-0.153-0.03-0.22-0.013-0.06-0.037-0.13-0.07-0.21v0l-3.25-8.92c-0.08-0.227-0.2-0.393-0.36-0.5-0.167-0.107-0.313-0.16-0.44-0.16v0c-0.133 0-0.28 0.063-0.44 0.19-0.167 0.12-0.29 0.287-0.37 0.5zM39.62 0h-0.7c-0.1 0-0.157-0.03-0.17-0.09-0.02-0.053-0.03-0.09-0.03-0.11v0-1.05c0-0.013 0.01-0.047 0.03-0.1 0.013-0.06 0.07-0.09 0.17-0.09v0h0.53c0.347 0 0.77-0.02 1.27-0.06 0.507-0.04 0.997-0.153 1.47-0.34 0.473-0.187 0.877-0.473 1.21-0.86 0.333-0.38 0.5-0.903 0.5-1.57v0-26.03c0-0.5-0.11-0.927-0.33-1.28-0.22-0.347-0.497-0.63-0.83-0.85-0.333-0.22-0.703-0.38-1.11-0.48-0.407-0.1-0.79-0.15-1.15-0.15v0h-1.56c-0.1 0-0.157-0.027-0.17-0.08-0.02-0.06-0.03-0.097-0.03-0.11v0-1.05c0-0.02 0.01-0.057 0.03-0.11 0.013-0.06 0.07-0.09 0.17-0.09v0h0.53l10.04-0.17c0.94-0.013 1.96-0.023 3.06-0.03 1.1-0.013 2.123-0.02 3.07-0.02v0c1.02 0 1.937 0.013 2.75 0.04 0.813 0.027 1.597 0.077 2.35 0.15 0.747 0.073 1.503 0.167 2.27 0.28 0.767 0.113 1.62 0.267 2.56 0.46v0c1.807 0.373 3.487 1.067 5.04 2.08 1.553 1.007 2.897 2.227 4.03 3.66 1.133 1.433 2.02 3.02 2.66 4.76 0.647 1.74 0.97 3.523 0.97 5.35v0c0 1.753-0.247 3.417-0.74 4.99-0.487 1.567-1.163 3.013-2.03 4.34-0.873 1.327-1.907 2.523-3.1 3.59-1.2 1.067-2.517 1.97-3.95 2.71-1.433 0.74-2.953 1.31-4.56 1.71-1.613 0.4-3.267 0.6-4.96 0.6v0zM50.85-3.91v0.13c0 0.467 0.153 0.83 0.46 1.09 0.3 0.267 0.697 0.46 1.19 0.58 0.5 0.12 1.083 0.19 1.75 0.21 0.667 0.013 1.367 0.02 2.1 0.02v0c4.833 0 8.457-1.333 10.87-4 2.42-2.673 3.63-6.563 3.63-11.67v0c0-2.247-0.273-4.307-0.82-6.18-0.547-1.873-1.377-3.483-2.49-4.83-1.113-1.353-2.513-2.403-4.2-3.15-1.68-0.753-3.67-1.13-5.97-1.13v0h-5.91c-0.24 0-0.4 0.053-0.48 0.16-0.087 0.107-0.13 0.273-0.13 0.5v0zM92.94 0.66v0c-0.387 0-0.637-0.18-0.75-0.54v0l-12.72-30.81c-0.147-0.36-0.34-0.663-0.58-0.91-0.233-0.253-0.473-0.467-0.72-0.64-0.24-0.173-0.473-0.303-0.7-0.39-0.233-0.087-0.423-0.147-0.57-0.18v0c-0.113-0.033-0.243-0.067-0.39-0.1-0.147-0.033-0.287-0.063-0.42-0.09-0.14-0.02-0.267-0.04-0.38-0.06-0.113-0.013-0.18-0.02-0.2-0.02v0c-0.127 0-0.19-0.067-0.19-0.2v0-0.95c0-0.127 0.063-0.19 0.19-0.19v0h16.6c0.1 0 0.16 0.02 0.18 0.06 0.013 0.04 0.02 0.083 0.02 0.13v0 0.95c0 0.033-0.013 0.077-0.04 0.13-0.02 0.047-0.073 0.07-0.16 0.07v0h-0.36c-0.407 0.067-0.867 0.13-1.38 0.19-0.513 0.067-0.993 0.187-1.44 0.36-0.447 0.167-0.82 0.42-1.12 0.76-0.307 0.333-0.46 0.79-0.46 1.37v0c0 0.213 0.037 0.46 0.11 0.74 0.073 0.273 0.153 0.5 0.24 0.68v0l8.71 21.14c0.02 0.053 0.04 0.09 0.06 0.11 0.027 0.027 0.057 0.057 0.09 0.09v0c0.033 0.033 0.067 0.05 0.1 0.05v0c0.113 0 0.2-0.09 0.26-0.27v0l8.01-21.63c0.067-0.18 0.137-0.347 0.21-0.5 0.073-0.153 0.11-0.313 0.11-0.48v0c0-0.567-0.187-1.06-0.56-1.48-0.373-0.413-0.893-0.677-1.56-0.79v0c-0.1-0.013-0.26-0.037-0.48-0.07-0.22-0.033-0.453-0.07-0.7-0.11-0.24-0.04-0.473-0.077-0.7-0.11-0.233-0.033-0.397-0.05-0.49-0.05v0c-0.133 0-0.2-0.067-0.2-0.2v0-0.95c0-0.033 0.01-0.073 0.03-0.12 0.013-0.047 0.07-0.07 0.17-0.07v0h13.06c0.093 0 0.15 0.023 0.17 0.07 0.013 0.047 0.02 0.087 0.02 0.12v0 0.95c0 0.053-0.007 0.1-0.02 0.14-0.02 0.04-0.077 0.06-0.17 0.06v0h-0.9c-0.9 0.18-1.637 0.527-2.21 1.04-0.58 0.513-1.07 1.113-1.47 1.8-0.4 0.693-0.737 1.433-1.01 2.22-0.28 0.793-0.557 1.557-0.83 2.29v0l-9.45 25.53c-0.147 0.413-0.327 0.66-0.54 0.74-0.213 0.08-0.507 0.12-0.88 0.12v0zM114.31-0.54v-0.71c0-0.013 0.007-0.047 0.02-0.1 0.02-0.06 0.077-0.09 0.17-0.09v0h0.54c0.68-0.047 1.38-0.077 2.1-0.09 0.713-0.007 1.363-0.093 1.95-0.26 0.587-0.173 1.067-0.477 1.44-0.91 0.373-0.427 0.56-1.097 0.56-2.01v0-25c0-0.633-0.13-1.15-0.39-1.55-0.26-0.4-0.6-0.723-1.02-0.97-0.427-0.24-0.907-0.423-1.44-0.55-0.54-0.12-1.087-0.22-1.64-0.3v0h-0.51c-0.08 0-0.133-0.023-0.16-0.07-0.027-0.053-0.04-0.097-0.04-0.13v0-0.95c0-0.033 0.013-0.073 0.04-0.12 0.027-0.047 0.08-0.07 0.16-0.07v0h24.32c0.287 0 0.497 0.05 0.63 0.15 0.133 0.107 0.213 0.34 0.24 0.7v0l0.44 7.81c0 0.087-0.067 0.15-0.2 0.19-0.14 0.04-0.267 0.06-0.38 0.06v0c-0.133 0-0.263-0.017-0.39-0.05-0.133-0.033-0.223-0.083-0.27-0.15v0c-0.113-0.16-0.197-0.4-0.25-0.72-0.047-0.313-0.097-0.667-0.15-1.06-0.06-0.393-0.143-0.8-0.25-1.22-0.107-0.427-0.263-0.817-0.47-1.17-0.213-0.36-0.503-0.673-0.87-0.94-0.367-0.273-0.837-0.457-1.41-0.55v0h-8.71c-0.213 0-0.32 0.107-0.32 0.32v0 11.64c0 0.16 0.083 0.24 0.25 0.24v0h6.98c0.407 0 0.81-0.05 1.21-0.15 0.393-0.107 0.743-0.3 1.05-0.58 0.3-0.273 0.543-0.66 0.73-1.16 0.187-0.493 0.28-1.13 0.28-1.91v0c0-0.133 0.067-0.2 0.2-0.2v0h0.95c0.127 0 0.19 0.067 0.19 0.2v0 11.18c0 0.08-0.023 0.133-0.07 0.16-0.047 0.02-0.087 0.03-0.12 0.03v0h-0.95c-0.087 0-0.14-0.023-0.16-0.07-0.027-0.047-0.04-0.087-0.04-0.12v0c0-0.913-0.093-1.65-0.28-2.21-0.187-0.56-0.437-1-0.75-1.32-0.307-0.32-0.66-0.53-1.06-0.63-0.4-0.107-0.817-0.16-1.25-0.16v0h-6.91c-0.167 0-0.25 0.08-0.25 0.24v0 10.67c0 0.473 0.073 0.853 0.22 1.14 0.147 0.28 0.347 0.493 0.6 0.64 0.253 0.147 0.543 0.243 0.87 0.29 0.32 0.053 0.66 0.08 1.02 0.08v0h6.67c0.94 0 1.727-0.217 2.36-0.65 0.64-0.433 1.153-0.957 1.54-1.57 0.393-0.62 0.683-1.263 0.87-1.93 0.187-0.667 0.303-1.237 0.35-1.71v0c0.033-0.213 0.14-0.38 0.32-0.5 0.18-0.12 0.383-0.18 0.61-0.18v0c0.08 0 0.177 0.03 0.29 0.09 0.12 0.067 0.18 0.14 0.18 0.22v0l-0.81 8.94c-0.033 0.08-0.077 0.157-0.13 0.23-0.06 0.073-0.13 0.11-0.21 0.11v0h-28.3c-0.093 0-0.15-0.03-0.17-0.09-0.013-0.053-0.02-0.09-0.02-0.11v0zM147.17-0.98v-0.29c0-0.013 0.007-0.05 0.02-0.11 0.02-0.053 0.077-0.08 0.17-0.08v0c0.1 0 0.257-0.017 0.47-0.05 0.207-0.033 0.427-0.067 0.66-0.1 0.227-0.033 0.437-0.07 0.63-0.11 0.193-0.04 0.333-0.07 0.42-0.09v0c0.927-0.207 1.573-0.55 1.94-1.03 0.367-0.48 0.55-1.08 0.55-1.8v0-24.8c0-0.813-0.173-1.457-0.52-1.93-0.34-0.473-0.733-0.827-1.18-1.06-0.447-0.24-0.877-0.387-1.29-0.44-0.42-0.06-0.703-0.09-0.85-0.09v0h-0.92c-0.087 0-0.14-0.023-0.16-0.07-0.027-0.053-0.04-0.093-0.04-0.12v0-1.08c0-0.033 0.007-0.07 0.02-0.11 0.02-0.04 0.08-0.067 0.18-0.08v0c0.013 0 0.05 0 0.11 0 0.053 0 0.17-0.007 0.35-0.02 0.18-0.007 0.44-0.013 0.78-0.02 0.34-0.007 0.82-0.02 1.44-0.04v0c0.893-0.013 1.85-0.037 2.87-0.07 1.02-0.033 2.05-0.067 3.09-0.1 1.04-0.033 2.07-0.06 3.09-0.08 1.013-0.027 1.97-0.04 2.87-0.04v0h2.46c1.287 0 2.597 0.22 3.93 0.66 1.333 0.44 2.543 1.087 3.63 1.94 1.08 0.853 1.967 1.917 2.66 3.19 0.693 1.267 1.04 2.73 1.04 4.39v0c0 1.073-0.147 2.03-0.44 2.87-0.293 0.84-0.697 1.58-1.21 2.22-0.513 0.647-1.123 1.213-1.83 1.7-0.713 0.487-1.483 0.917-2.31 1.29v0l7.4 11.72c0.633 1.007 1.373 1.923 2.22 2.75 0.847 0.82 1.83 1.393 2.95 1.72v0c0.133 0.033 0.21 0.077 0.23 0.13 0.027 0.06 0.04 0.13 0.04 0.21v0c0 0.247-0.063 0.41-0.19 0.49-0.133 0.08-0.337 0.12-0.61 0.12v0c-0.687 0-1.467-0.043-2.34-0.13-0.867-0.093-1.74-0.24-2.62-0.44-0.88-0.207-1.713-0.473-2.5-0.8-0.793-0.327-1.457-0.733-1.99-1.22v0c-0.52-0.453-1.05-1.03-1.59-1.73-0.533-0.7-1.073-1.453-1.62-2.26-0.547-0.807-1.083-1.643-1.61-2.51-0.533-0.873-1.047-1.727-1.54-2.56-0.5-0.827-0.977-1.597-1.43-2.31-0.453-0.72-0.87-1.333-1.25-1.84v0l-3.8-0.26c-0.02 0-0.087 0-0.2 0-0.113 0-0.193 0.013-0.24 0.04v0c-0.053 0.033-0.087 0.067-0.1 0.1-0.02 0.033-0.03 0.1-0.03 0.2v0 10.4c0 0.44 0.06 0.823 0.18 1.15 0.113 0.32 0.303 0.6 0.57 0.84 0.267 0.233 0.617 0.423 1.05 0.57 0.433 0.147 0.957 0.26 1.57 0.34v0c0.1 0.02 0.243 0.047 0.43 0.08 0.187 0.033 0.39 0.07 0.61 0.11 0.22 0.04 0.437 0.077 0.65 0.11 0.213 0.033 0.393 0.05 0.54 0.05v0c0.093 0 0.15 0.023 0.17 0.07 0.013 0.047 0.02 0.087 0.02 0.12v0 1.07c0 0.033-0.013 0.077-0.04 0.13-0.02 0.047-0.07 0.07-0.15 0.07v0h-17.22c-0.08 0-0.133-0.113-0.16-0.34-0.02-0.227-0.03-0.44-0.03-0.64zM158.98-18.63l0.05 0.73c0.02 0.133 0.057 0.253 0.11 0.36 0.06 0.107 0.18 0.167 0.36 0.18v0c0.147 0.02 0.367 0.05 0.66 0.09 0.293 0.04 0.7 0.06 1.22 0.06v0c1.433 0 2.613-0.22 3.54-0.66 0.927-0.44 1.657-1.03 2.19-1.77 0.54-0.74 0.913-1.59 1.12-2.55 0.2-0.96 0.3-1.963 0.3-3.01v0c0-1.087-0.17-2.12-0.51-3.1-0.347-0.973-0.823-1.817-1.43-2.53-0.613-0.72-1.347-1.29-2.2-1.71-0.853-0.427-1.793-0.64-2.82-0.64v0c-0.227 0-0.403 0.003-0.53 0.01-0.133 0.013-0.26 0.023-0.38 0.03-0.127 0.007-0.267 0.013-0.42 0.02-0.153 0.007-0.37 0.02-0.65 0.04v0c-0.093 0-0.217 0.02-0.37 0.06-0.16 0.04-0.24 0.15-0.24 0.33v0zM193.8-30.69v0c0-0.34-0.07-0.53-0.21-0.57-0.14-0.04-0.307-0.077-0.5-0.11v0h-8.28c-0.6 0.127-1.07 0.367-1.41 0.72-0.34 0.347-0.61 0.757-0.81 1.23-0.193 0.473-0.34 0.983-0.44 1.53-0.093 0.54-0.197 1.063-0.31 1.57v0c-0.033 0.147-0.067 0.323-0.1 0.53-0.033 0.2-0.067 0.317-0.1 0.35v0c-0.033 0.047-0.09 0.07-0.17 0.07v0h-0.81c-0.093 0-0.14-0.03-0.14-0.09v0-0.81l0.9-8.35c0.033-0.18 0.107-0.35 0.22-0.51 0.113-0.167 0.293-0.25 0.54-0.25v0c0.113 0 0.223 0.033 0.33 0.1 0.107 0.067 0.207 0.143 0.3 0.23 0.1 0.093 0.193 0.18 0.28 0.26 0.093 0.08 0.187 0.137 0.28 0.17v0c0.2 0.08 0.383 0.133 0.55 0.16 0.173 0.027 0.367 0.04 0.58 0.04v0h25.58c0.213 0 0.407-0.013 0.58-0.04 0.167-0.027 0.35-0.08 0.55-0.16v0c0.093-0.033 0.187-0.09 0.28-0.17 0.087-0.08 0.18-0.167 0.28-0.26 0.093-0.087 0.193-0.163 0.3-0.23 0.107-0.067 0.217-0.1 0.33-0.1v0c0.247 0 0.427 0.083 0.54 0.25 0.113 0.16 0.187 0.33 0.22 0.51v0l0.9 8.35v0.81c0 0.06-0.047 0.09-0.14 0.09v0h-0.81c-0.08 0-0.137-0.023-0.17-0.07v0c-0.033-0.033-0.067-0.15-0.1-0.35-0.033-0.207-0.067-0.383-0.1-0.53v0c-0.113-0.507-0.217-1.03-0.31-1.57-0.1-0.547-0.247-1.057-0.44-1.53-0.2-0.473-0.47-0.883-0.81-1.23-0.34-0.353-0.81-0.593-1.41-0.72v0h-8.31c-0.193 0.033-0.36 0.07-0.5 0.11-0.133 0.04-0.2 0.23-0.2 0.57v0 25.93c0 0.487 0.12 0.923 0.36 1.31 0.247 0.38 0.577 0.717 0.99 1.01 0.413 0.293 0.903 0.53 1.47 0.71 0.56 0.18 1.157 0.3 1.79 0.36v0c0.18 0.02 0.407 0.03 0.68 0.03 0.28 0 0.517 0 0.71 0v0c0.08 0 0.133 0.023 0.16 0.07 0.027 0.047 0.04 0.087 0.04 0.12v0 0.95c0 0.033-0.013 0.077-0.04 0.13-0.027 0.047-0.08 0.07-0.16 0.07v0h-18.97c-0.08 0-0.133-0.023-0.16-0.07-0.02-0.053-0.03-0.097-0.03-0.13v0-0.95c0-0.033 0.01-0.073 0.03-0.12 0.027-0.047 0.08-0.07 0.16-0.07v0c0.18 0 0.413 0 0.7 0 0.287 0 0.517-0.01 0.69-0.03v0c0.64-0.06 1.24-0.18 1.8-0.36 0.56-0.18 1.047-0.417 1.46-0.71 0.42-0.293 0.75-0.63 0.99-1.01 0.247-0.387 0.37-0.823 0.37-1.31v0z" data-fill-palette-color="primary" fill="#ffffff" opacity="1"></path><path d="M16.11 38.5v-0.71c0-0.013 0.01-0.047 0.03-0.1 0.013-0.06 0.07-0.09 0.17-0.09v0h0.53c0.687-0.047 1.387-0.077 2.1-0.09 0.72-0.007 1.373-0.093 1.96-0.26 0.58-0.173 1.06-0.477 1.44-0.91 0.373-0.427 0.56-1.097 0.56-2.01v0-25c0-0.633-0.13-1.15-0.39-1.55-0.26-0.4-0.603-0.723-1.03-0.97-0.42-0.24-0.9-0.423-1.44-0.55-0.533-0.12-1.077-0.22-1.63-0.3v0h-0.52c-0.08 0-0.133-0.023-0.16-0.07-0.02-0.053-0.03-0.097-0.03-0.13v0-0.95c0-0.033 0.01-0.073 0.03-0.12 0.027-0.047 0.08-0.07 0.16-0.07v0h24.32c0.293 0 0.503 0.05 0.63 0.15 0.133 0.107 0.217 0.34 0.25 0.7v0l0.44 7.81c0 0.087-0.07 0.15-0.21 0.19-0.14 0.04-0.267 0.06-0.38 0.06v0c-0.127 0-0.257-0.017-0.39-0.05-0.127-0.033-0.217-0.083-0.27-0.15v0c-0.113-0.16-0.193-0.4-0.24-0.72-0.047-0.313-0.1-0.667-0.16-1.06-0.06-0.393-0.14-0.8-0.24-1.22-0.107-0.427-0.267-0.817-0.48-1.17-0.213-0.36-0.503-0.673-0.87-0.94-0.367-0.273-0.833-0.457-1.4-0.55v0h-8.72c-0.207 0-0.31 0.107-0.31 0.32v0 11.64c0 0.16 0.08 0.24 0.24 0.24v0h6.98c0.407 0 0.81-0.05 1.21-0.15 0.4-0.107 0.75-0.3 1.05-0.58 0.3-0.273 0.543-0.66 0.73-1.16 0.187-0.493 0.28-1.13 0.28-1.91v0c0-0.133 0.067-0.2 0.2-0.2v0h0.95c0.133 0 0.2 0.067 0.2 0.2v0 11.18c0 0.08-0.027 0.133-0.08 0.16-0.047 0.02-0.087 0.03-0.12 0.03v0h-0.95c-0.08 0-0.133-0.023-0.16-0.07-0.027-0.047-0.04-0.087-0.04-0.12v0c0-0.913-0.093-1.65-0.28-2.21-0.187-0.56-0.433-1-0.74-1.32-0.313-0.32-0.667-0.53-1.06-0.63-0.4-0.107-0.82-0.16-1.26-0.16v0h-6.91c-0.16 0-0.24 0.08-0.24 0.24v0 10.67c0 0.473 0.073 0.853 0.22 1.14 0.147 0.28 0.343 0.493 0.59 0.64 0.253 0.147 0.543 0.243 0.87 0.29 0.327 0.053 0.67 0.08 1.03 0.08v0h6.66c0.947 0 1.737-0.217 2.37-0.65 0.633-0.433 1.147-0.957 1.54-1.57 0.387-0.62 0.673-1.263 0.86-1.93 0.187-0.667 0.307-1.237 0.36-1.71v0c0.033-0.213 0.14-0.38 0.32-0.5 0.173-0.12 0.377-0.18 0.61-0.18v0c0.08 0 0.177 0.03 0.29 0.09 0.113 0.067 0.17 0.14 0.17 0.22v0l-0.81 8.94c-0.027 0.08-0.07 0.157-0.13 0.23-0.06 0.073-0.13 0.11-0.21 0.11v0h-28.29c-0.1 0-0.157-0.03-0.17-0.09-0.02-0.053-0.03-0.09-0.03-0.11v0zM48.53 38.84v-1.07c0-0.033 0.013-0.073 0.04-0.12 0.027-0.047 0.08-0.07 0.16-0.07v0c1.073 0 1.907-0.127 2.5-0.38 0.593-0.253 1.033-0.603 1.32-1.05 0.287-0.447 0.46-0.98 0.52-1.6 0.067-0.62 0.117-1.287 0.15-2v0c0.1-2.1 0.217-4.14 0.35-6.12 0.14-1.98 0.277-3.923 0.41-5.83 0.127-1.913 0.24-3.807 0.34-5.68 0.1-1.873 0.15-3.753 0.15-5.64v0-0.9c0-0.38-0.123-0.71-0.37-0.99-0.247-0.287-0.537-0.527-0.87-0.72-0.333-0.2-0.67-0.347-1.01-0.44-0.34-0.1-0.61-0.15-0.81-0.15v0c-0.127 0-0.19-0.063-0.19-0.19v0-1.08c0-0.033 0.007-0.073 0.02-0.12 0.02-0.047 0.077-0.07 0.17-0.07v0h8.65c0.173 0.027 0.32 0.087 0.44 0.18 0.113 0.087 0.217 0.203 0.31 0.35v0l10.62 23.68c0.113 0.28 0.26 0.42 0.44 0.42v0c0.18 0 0.31-0.04 0.39-0.12 0.087-0.08 0.153-0.187 0.2-0.32v0l10.5-23.22c0.16-0.307 0.32-0.547 0.48-0.72 0.167-0.167 0.33-0.25 0.49-0.25v0h8.6c0.093 0 0.15 0.023 0.17 0.07 0.013 0.047 0.02 0.087 0.02 0.12v0 1.08c0 0.027-0.01 0.067-0.03 0.12-0.027 0.047-0.08 0.07-0.16 0.07v0c-0.033 0-0.227 0.033-0.58 0.1-0.347 0.067-0.727 0.193-1.14 0.38-0.42 0.187-0.8 0.453-1.14 0.8-0.34 0.353-0.51 0.813-0.51 1.38v0l1.41 26c0.02 0.473 0.147 0.873 0.38 1.2 0.24 0.327 0.53 0.597 0.87 0.81 0.34 0.207 0.703 0.363 1.09 0.47 0.38 0.107 0.737 0.19 1.07 0.25 0.333 0.053 0.617 0.083 0.85 0.09 0.24 0.013 0.367 0.02 0.38 0.02v0c0.08 0 0.133 0.023 0.16 0.07 0.027 0.047 0.04 0.087 0.04 0.12v0 1.07c0 0.033-0.013 0.077-0.04 0.13-0.027 0.047-0.08 0.07-0.16 0.07v0h-16.06c-0.133 0-0.2-0.067-0.2-0.2v0-1.07c0-0.127 0.067-0.19 0.2-0.19v0c0.387 0 0.83-0.023 1.33-0.07 0.493-0.04 0.97-0.133 1.43-0.28 0.453-0.147 0.833-0.36 1.14-0.64 0.313-0.287 0.47-0.667 0.47-1.14v0l-1.12-19.95c-0.02-0.16-0.063-0.24-0.13-0.24v0c-0.06 0-0.123 0.073-0.19 0.22v0l-10.7 23.14c-0.08 0.18-0.19 0.297-0.33 0.35-0.133 0.047-0.373 0.07-0.72 0.07v0c-0.58 0-1.013-0.017-1.3-0.05-0.287-0.033-0.48-0.163-0.58-0.39v0l-10.4-22.92c-0.047-0.12-0.083-0.207-0.11-0.26-0.02-0.06-0.063-0.09-0.13-0.09v0c-0.113 0-0.17 0.107-0.17 0.32v0c0 0.487-0.023 1.203-0.07 2.15-0.053 0.947-0.12 2.01-0.2 3.19-0.08 1.18-0.16 2.427-0.24 3.74-0.087 1.32-0.17 2.6-0.25 3.84-0.08 1.233-0.143 2.383-0.19 3.45-0.053 1.067-0.08 1.943-0.08 2.63v0 1c0.067 0.307 0.23 0.583 0.49 0.83 0.26 0.24 0.587 0.443 0.98 0.61 0.387 0.16 0.817 0.28 1.29 0.36 0.473 0.087 0.97 0.13 1.49 0.13v0c0.08 0 0.127 0.023 0.14 0.07 0.007 0.047 0.01 0.087 0.01 0.12v0 1.07c0 0.133-0.05 0.2-0.15 0.2v0h-12.13c-0.133 0-0.2-0.067-0.2-0.2zM115.67 39.04h-16.8c-0.127 0-0.19-0.08-0.19-0.24v0-1.03c0-0.013 0.007-0.05 0.02-0.11 0.02-0.053 0.077-0.08 0.17-0.08v0c0.553 0 1.07-0.083 1.55-0.25 0.487-0.16 0.907-0.38 1.26-0.66 0.36-0.273 0.647-0.607 0.86-1 0.207-0.393 0.31-0.817 0.31-1.27v0-24.8c0-0.813-0.08-1.453-0.24-1.92-0.16-0.467-0.4-0.817-0.72-1.05-0.32-0.233-0.72-0.38-1.2-0.44-0.48-0.053-1.037-0.08-1.67-0.08v0h-1.1c-0.18 0-0.31-0.103-0.39-0.31-0.08-0.2-0.12-0.373-0.12-0.52v0c0-0.087 0.017-0.21 0.05-0.37 0.033-0.167 0.123-0.263 0.27-0.29v0c0.013 0 0.067 0 0.16 0 0.087 0 0.243-0.007 0.47-0.02 0.227-0.007 0.533-0.013 0.92-0.02 0.38-0.007 0.88-0.02 1.5-0.04v0c0.893-0.013 1.85-0.037 2.87-0.07 1.013-0.033 2.043-0.067 3.09-0.1 1.04-0.033 2.067-0.06 3.08-0.08 1.02-0.027 1.977-0.04 2.87-0.04v0h3.45c1.3 0 2.567 0.22 3.8 0.66 1.24 0.44 2.34 1.087 3.3 1.94 0.96 0.853 1.733 1.917 2.32 3.19 0.587 1.267 0.88 2.73 0.88 4.39v0c0 1.04-0.157 2.037-0.47 2.99-0.307 0.953-0.723 1.83-1.25 2.63-0.533 0.793-1.143 1.513-1.83 2.16-0.693 0.64-1.42 1.18-2.18 1.62-0.753 0.44-1.52 0.773-2.3 1v0c-0.687 0.18-1.33 0.27-1.93 0.27v0c-0.1 0-0.19 0-0.27 0v0l-5.84-0.29c-0.013 0-0.077 0-0.19 0-0.113 0-0.197 0.017-0.25 0.05v0c-0.047 0.027-0.077 0.057-0.09 0.09-0.02 0.033-0.03 0.1-0.03 0.2v0 9.18c0 0.633 0.177 1.157 0.53 1.57 0.347 0.42 0.8 0.75 1.36 0.99 0.567 0.247 1.2 0.423 1.9 0.53 0.7 0.107 1.39 0.16 2.07 0.16v0c0.1 0 0.157 0.023 0.17 0.07 0.02 0.047 0.03 0.087 0.03 0.12v0 1.07c0 0.033-0.013 0.077-0.04 0.13-0.027 0.047-0.08 0.07-0.16 0.07zM109.81 21.32l0.05 0.73c0.02 0.127 0.057 0.243 0.11 0.35 0.06 0.107 0.177 0.167 0.35 0.18v0c0.067 0 0.187 0.01 0.36 0.03 0.173 0.013 0.373 0.03 0.6 0.05 0.227 0.013 0.473 0.03 0.74 0.05 0.267 0.013 0.533 0.02 0.8 0.02v0c1.087 0 2.04-0.22 2.86-0.66 0.827-0.44 1.51-1.053 2.05-1.84 0.547-0.793 0.957-1.73 1.23-2.81 0.267-1.08 0.4-2.273 0.4-3.58v0c0-2.68-0.537-4.647-1.61-5.9-1.073-1.253-2.653-1.88-4.74-1.88v0c-0.227 0-0.437 0.003-0.63 0.01-0.2 0.007-0.397 0.013-0.59 0.02-0.193 0.013-0.4 0.023-0.62 0.03-0.22 0.007-0.47 0.017-0.75 0.03v0c-0.093 0-0.22 0.023-0.38 0.07-0.153 0.04-0.23 0.147-0.23 0.32v0zM141.31 34.4v0c0 0.553 0.083 1.017 0.25 1.39 0.173 0.373 0.417 0.677 0.73 0.91 0.32 0.227 0.713 0.387 1.18 0.48 0.46 0.1 0.977 0.15 1.55 0.15v0c0.127 0 0.19 0.067 0.19 0.2v0 1.31c0 0.053-0.007 0.1-0.02 0.14-0.02 0.04-0.077 0.06-0.17 0.06v0h-14.43c-0.08 0-0.133-0.023-0.16-0.07-0.027-0.053-0.04-0.097-0.04-0.13v0-1.31c0-0.033 0.013-0.077 0.04-0.13 0.027-0.047 0.08-0.07 0.16-0.07v0c0.567 0 1.083-0.037 1.55-0.11 0.46-0.073 0.853-0.23 1.18-0.47 0.327-0.247 0.58-0.597 0.76-1.05 0.18-0.46 0.27-1.08 0.27-1.86v0-24.59c0-0.553-0.087-1.017-0.26-1.39-0.167-0.373-0.41-0.673-0.73-0.9-0.32-0.227-0.71-0.39-1.17-0.49-0.467-0.093-0.983-0.14-1.55-0.14v0c-0.133 0-0.2-0.067-0.2-0.2v0-1.32c0-0.127 0.067-0.19 0.2-0.19v0h14.43c0.08 0 0.13 0.023 0.15 0.07 0.027 0.047 0.04 0.087 0.04 0.12v0 1.32c0 0.033-0.013 0.073-0.04 0.12-0.02 0.053-0.07 0.08-0.15 0.08v0c-0.573 0-1.09 0.037-1.55 0.11-0.467 0.067-0.863 0.223-1.19 0.47-0.327 0.247-0.58 0.597-0.76 1.05-0.173 0.453-0.26 1.073-0.26 1.86v0zM148.53 38.06v-0.29c0-0.013 0.01-0.05 0.03-0.11 0.013-0.053 0.07-0.08 0.17-0.08v0c0.093 0 0.247-0.017 0.46-0.05 0.213-0.033 0.433-0.067 0.66-0.1 0.227-0.033 0.44-0.07 0.64-0.11 0.193-0.04 0.33-0.07 0.41-0.09v0c0.927-0.207 1.573-0.55 1.94-1.03 0.367-0.48 0.55-1.08 0.55-1.8v0-24.8c0-0.813-0.17-1.457-0.51-1.93-0.34-0.473-0.737-0.827-1.19-1.06-0.447-0.24-0.877-0.387-1.29-0.44-0.413-0.06-0.693-0.09-0.84-0.09v0h-0.93c-0.08 0-0.133-0.023-0.16-0.07-0.02-0.053-0.03-0.093-0.03-0.12v0-1.08c0-0.033 0.007-0.07 0.02-0.11 0.013-0.04 0.07-0.067 0.17-0.08v0c0.013 0 0.05 0 0.11 0 0.06 0 0.177-0.007 0.35-0.02 0.18-0.007 0.443-0.013 0.79-0.02 0.34-0.007 0.82-0.02 1.44-0.04v0c0.893-0.013 1.847-0.037 2.86-0.07 1.02-0.033 2.05-0.067 3.09-0.1 1.047-0.033 2.077-0.06 3.09-0.08 1.02-0.027 1.977-0.04 2.87-0.04v0h2.47c1.28 0 2.59 0.22 3.93 0.66 1.333 0.44 2.54 1.087 3.62 1.94 1.087 0.853 1.973 1.917 2.66 3.19 0.693 1.267 1.04 2.73 1.04 4.39v0c0 1.073-0.147 2.03-0.44 2.87-0.293 0.84-0.697 1.58-1.21 2.22-0.513 0.647-1.123 1.213-1.83 1.7-0.707 0.487-1.477 0.917-2.31 1.29v0l7.4 11.72c0.633 1.007 1.373 1.923 2.22 2.75 0.847 0.82 1.833 1.393 2.96 1.72v0c0.127 0.033 0.203 0.077 0.23 0.13 0.027 0.06 0.04 0.13 0.04 0.21v0c0 0.247-0.067 0.41-0.2 0.49-0.127 0.08-0.33 0.12-0.61 0.12v0c-0.68 0-1.457-0.043-2.33-0.13-0.873-0.093-1.75-0.24-2.63-0.44-0.873-0.207-1.707-0.473-2.5-0.8-0.787-0.327-1.45-0.733-1.99-1.22v0c-0.52-0.453-1.047-1.03-1.58-1.73-0.54-0.7-1.083-1.453-1.63-2.26-0.547-0.807-1.083-1.643-1.61-2.51-0.527-0.873-1.04-1.727-1.54-2.56-0.493-0.827-0.97-1.597-1.43-2.31-0.453-0.72-0.867-1.333-1.24-1.84v0l-3.81-0.26c-0.013 0-0.077 0-0.19 0-0.12 0-0.203 0.013-0.25 0.04v0c-0.047 0.033-0.08 0.067-0.1 0.1-0.013 0.033-0.02 0.1-0.02 0.2v0 10.4c0 0.44 0.057 0.823 0.17 1.15 0.113 0.32 0.303 0.6 0.57 0.84 0.273 0.233 0.623 0.423 1.05 0.57 0.433 0.147 0.96 0.26 1.58 0.34v0c0.093 0.02 0.237 0.047 0.43 0.08 0.187 0.033 0.39 0.07 0.61 0.11 0.22 0.04 0.433 0.077 0.64 0.11 0.213 0.033 0.393 0.05 0.54 0.05v0c0.1 0 0.157 0.023 0.17 0.07 0.02 0.047 0.03 0.087 0.03 0.12v0 1.07c0 0.033-0.013 0.077-0.04 0.13-0.027 0.047-0.08 0.07-0.16 0.07v0h-17.21c-0.08 0-0.133-0.113-0.16-0.34-0.027-0.227-0.04-0.44-0.04-0.64zM160.35 20.41l0.05 0.73c0.013 0.133 0.05 0.253 0.11 0.36 0.053 0.107 0.17 0.167 0.35 0.18v0c0.147 0.02 0.367 0.05 0.66 0.09 0.293 0.04 0.7 0.06 1.22 0.06v0c1.433 0 2.613-0.22 3.54-0.66 0.927-0.44 1.66-1.03 2.2-1.77 0.533-0.74 0.903-1.59 1.11-2.55 0.207-0.96 0.31-1.963 0.31-3.01v0c0-1.087-0.173-2.12-0.52-3.1-0.34-0.973-0.817-1.817-1.43-2.53-0.607-0.72-1.337-1.29-2.19-1.71-0.853-0.427-1.793-0.64-2.82-0.64v0c-0.227 0-0.407 0.003-0.54 0.01-0.133 0.013-0.26 0.023-0.38 0.03-0.12 0.007-0.257 0.013-0.41 0.02-0.16 0.007-0.377 0.02-0.65 0.04v0c-0.1 0-0.227 0.02-0.38 0.06-0.153 0.04-0.23 0.15-0.23 0.33v0zM184.47 38.5v-0.71c0-0.013 0.007-0.047 0.02-0.1 0.02-0.06 0.08-0.09 0.18-0.09v0h0.53c0.687-0.047 1.387-0.077 2.1-0.09 0.72-0.007 1.373-0.093 1.96-0.26 0.58-0.173 1.06-0.477 1.44-0.91 0.373-0.427 0.56-1.097 0.56-2.01v0-25c0-0.633-0.13-1.15-0.39-1.55-0.26-0.4-0.603-0.723-1.03-0.97-0.42-0.24-0.9-0.423-1.44-0.55-0.533-0.12-1.077-0.22-1.63-0.3v0h-0.52c-0.08 0-0.133-0.023-0.16-0.07-0.02-0.053-0.03-0.097-0.03-0.13v0-0.95c0-0.033 0.01-0.073 0.03-0.12 0.027-0.047 0.08-0.07 0.16-0.07v0h24.32c0.293 0 0.503 0.05 0.63 0.15 0.133 0.107 0.217 0.34 0.25 0.7v0l0.44 7.81c0 0.087-0.07 0.15-0.21 0.19-0.14 0.04-0.267 0.06-0.38 0.06v0c-0.127 0-0.257-0.017-0.39-0.05-0.127-0.033-0.217-0.083-0.27-0.15v0c-0.113-0.16-0.193-0.4-0.24-0.72-0.053-0.313-0.107-0.667-0.16-1.06-0.06-0.393-0.14-0.8-0.24-1.22-0.107-0.427-0.267-0.817-0.48-1.17-0.213-0.36-0.503-0.673-0.87-0.94-0.367-0.273-0.833-0.457-1.4-0.55v0h-8.72c-0.207 0-0.31 0.107-0.31 0.32v0 11.64c0 0.16 0.08 0.24 0.24 0.24v0h6.98c0.407 0 0.81-0.05 1.21-0.15 0.4-0.107 0.75-0.3 1.05-0.58 0.3-0.273 0.543-0.66 0.73-1.16 0.187-0.493 0.28-1.13 0.28-1.91v0c0-0.133 0.067-0.2 0.2-0.2v0h0.95c0.133 0 0.2 0.067 0.2 0.2v0 11.18c0 0.08-0.027 0.133-0.08 0.16-0.047 0.02-0.087 0.03-0.12 0.03v0h-0.95c-0.08 0-0.133-0.023-0.16-0.07-0.027-0.047-0.04-0.087-0.04-0.12v0c0-0.913-0.093-1.65-0.28-2.21-0.187-0.56-0.433-1-0.74-1.32-0.313-0.32-0.667-0.53-1.06-0.63-0.4-0.107-0.82-0.16-1.26-0.16v0h-6.91c-0.16 0-0.24 0.08-0.24 0.24v0 10.67c0 0.473 0.073 0.853 0.22 1.14 0.14 0.28 0.337 0.493 0.59 0.64 0.253 0.147 0.543 0.243 0.87 0.29 0.327 0.053 0.67 0.08 1.03 0.08v0h6.66c0.947 0 1.737-0.217 2.37-0.65 0.633-0.433 1.147-0.957 1.54-1.57 0.387-0.62 0.673-1.263 0.86-1.93 0.187-0.667 0.307-1.237 0.36-1.71v0c0.033-0.213 0.137-0.38 0.31-0.5 0.18-0.12 0.387-0.18 0.62-0.18v0c0.08 0 0.177 0.03 0.29 0.09 0.113 0.067 0.17 0.14 0.17 0.22v0l-0.81 8.94c-0.033 0.08-0.077 0.157-0.13 0.23-0.06 0.073-0.13 0.11-0.21 0.11v0h-28.29c-0.1 0-0.16-0.03-0.18-0.09-0.013-0.053-0.02-0.09-0.02-0.11v0z" data-fill-palette-color="primary" fill="#ffffff" opacity="1"></path></g></svg></g></svg></g><g transform="matrix(1,0,0,1,163.31020799999996,160.0589133597535)"><svg viewBox="0 0 232.20979200000002 32.63361452082628" height="32.63361452082628" width="232.20979200000002"><g transform="matrix(1,0,0,1,0,0)"><svg width="232.20979200000002" viewBox="2.25 -31.700000762939453 295.2699890136719 41.5" height="32.63361452082628" data-palette-color="#1c4b82"><path d="M11.95 0L9.45 0Q5.65 0 3.95-1.78 2.25-3.55 2.25-6.65L2.25-6.65Q2.25-9.9 4.03-11.65 5.8-13.4 9.45-13.4L9.45-13.4 12-13.4Q15.75-13.4 18.75-13.2 21.75-13 23.7-12.8L23.7-12.8 23.7-16.1Q23.7-16.55 23.6-17.03 23.5-17.5 23-17.8 22.5-18.1 21.3-18.1L21.3-18.1 18.8-18.1Q13.35-18.1 9.7-17.93 6.05-17.75 4.75-17.6L4.75-17.6 4.2-21.4Q4.2-22.1 8-22.25 11.8-22.4 20.7-22.4L20.7-22.4 23.2-22.4Q25.7-22.4 27.05-21.7 28.4-21 28.98-19.95 29.55-18.9 29.68-17.82 29.8-16.75 29.8-16L29.8-16 29.8 0 25.7 0 23.75-1Q21.65-0.65 18.7-0.33 15.75 0 11.95 0L11.95 0ZM10.75-4.3L10.75-4.3 22.2-4.3Q23.3-4.3 23.5-4.5 23.7-4.7 23.7-5.75L23.7-5.75 23.7-9.6 10.75-9.6Q9.4-9.6 8.88-8.95 8.35-8.3 8.35-6.9L8.35-6.9Q8.35-5.5 8.95-4.9 9.55-4.3 10.75-4.3ZM42.15 0L36.05 0 36.05-27.7 35.55-31.7 42.15-31.7 42.15 0ZM54.75 0L48.65 0 48.65-27.7 48.15-31.7 54.75-31.7 54.75 0ZM75.19 9.8L73.84 9.8Q71.44 9.8 69.44 9.25 67.44 8.7 66.74 8.25L66.74 8.25 68.24 3.75Q69.09 4.1 70.67 4.58 72.24 5.05 74.24 5.05L74.24 5.05 74.79 5.05Q77.09 5.05 78.87 3.68 80.64 2.3 81.59 0L81.59 0 79.09 0 69.29-22.4 76.29-22.4 82.04-8.6 83.34-5 83.84-5 85.14-8.6 90.99-22.4 97.79-22.4 96.99-19.35Q96.04-17.4 94.82-14.88 93.59-12.35 92.29-9.65 90.99-6.95 89.77-4.45 88.54-1.95 87.59 0L87.59 0Q86.14 3 84.42 5.2 82.69 7.4 80.47 8.6 78.24 9.8 75.19 9.8L75.19 9.8ZM121.19 0L107.39 0Q104.04 0 102.41-1.35 100.79-2.7 100.79-5.75L100.79-5.75 100.79-16Q100.79-16.75 100.91-17.82 101.04-18.9 101.61-19.95 102.19-21 103.56-21.7 104.94-22.4 107.39-22.4L107.39-22.4 121.19-22.4Q123.69-22.4 125.04-21.7 126.39-21 126.96-19.95 127.54-18.9 127.66-17.82 127.79-16.75 127.79-16L127.79-16 127.79-6.4Q127.79-5.5 127.66-4.4 127.54-3.3 126.94-2.3 126.34-1.3 124.99-0.65 123.64 0 121.19 0L121.19 0ZM109.29-4.3L109.29-4.3 119.29-4.3Q121.74-4.3 121.74-6.3L121.74-6.3 121.74-16.1Q121.74-18.1 119.29-18.1L119.29-18.1 109.29-18.1Q106.89-18.1 106.89-16.1L106.89-16.1 106.89-6.3Q106.89-4.3 109.29-4.3ZM142.44 0L139.89 0Q137.44 0 136.06-0.65 134.69-1.3 134.11-2.3 133.54-3.3 133.41-4.4 133.29-5.5 133.29-6.4L133.29-6.4 133.29-22.4 139.39-22.4 139.39-6.3Q139.34-5.2 140.11-4.75 140.89-4.3 141.79-4.3L141.79-4.3 151.69-4.3Q152.79-4.3 152.99-4.5 153.19-4.7 153.19-5.8L153.19-5.8 153.19-22.4 159.29-22.4 159.29 0 155.19 0 153.29-1Q151.29-0.6 148.56-0.3 145.84 0 142.44 0L142.44 0ZM182.38 0L176.28 0 176.28-22.4 180.38-22.4 182.38-21.4Q184.48-21.8 187.43-22.1 190.38-22.4 194.18-22.4L194.18-22.4 196.68-22.4Q199.18-22.4 200.53-21.7 201.88-21 202.46-19.95 203.03-18.9 203.16-17.82 203.28-16.75 203.28-16L203.28-16 203.28 0 197.18 0 197.18-16.1Q197.18-18.1 194.78-18.1L194.78-18.1 183.88-18.1Q182.93-18.1 182.66-17.93 182.38-17.75 182.38-17L182.38-17 182.38 0ZM225.18 0L215.13 0Q212.63 0 211.28-0.65 209.93-1.3 209.35-2.3 208.78-3.3 208.65-4.4 208.53-5.5 208.53-6.4L208.53-6.4 208.53-16Q208.53-16.75 208.65-17.82 208.78-18.9 209.35-19.95 209.93-21 211.3-21.7 212.68-22.4 215.13-22.4L215.13-22.4 225.88-22.4Q229.18-22.4 231.05-21.78 232.93-21.15 233.7-19.75 234.48-18.35 234.48-16L234.48-16 234.48-8.6 225.73-8.6Q221.23-8.6 218.4-8.8 215.58-9 214.63-9.05L214.63-9.05 214.63-6.3Q214.58-4.3 217.03-4.3L217.03-4.3 219.58-4.3Q222.28-4.3 224.85-4.38 227.43-4.45 229.58-4.58 231.73-4.7 233.03-4.8L233.03-4.8 235.03-1.55Q235.03 0 225.18 0L225.18 0ZM214.63-16.1L214.63-12.9 228.38-12.9 228.38-16.1Q228.38-17.1 228.15-17.5 227.93-17.9 226.83-18 225.73-18.1 223.08-18.1L223.08-18.1 217.03-18.1Q214.63-18.1 214.63-16.1L214.63-16.1ZM256.18 0L246.13 0Q243.63 0 242.28-0.65 240.93-1.3 240.35-2.3 239.78-3.3 239.65-4.4 239.53-5.5 239.53-6.4L239.53-6.4 239.53-16Q239.53-16.75 239.65-17.82 239.78-18.9 240.35-19.95 240.93-21 242.3-21.7 243.68-22.4 246.13-22.4L246.13-22.4 256.88-22.4Q260.18-22.4 262.05-21.78 263.93-21.15 264.7-19.75 265.48-18.35 265.48-16L265.48-16 265.48-8.6 256.73-8.6Q252.23-8.6 249.4-8.8 246.58-9 245.63-9.05L245.63-9.05 245.63-6.3Q245.58-4.3 248.03-4.3L248.03-4.3 250.58-4.3Q253.28-4.3 255.85-4.38 258.43-4.45 260.58-4.58 262.73-4.7 264.03-4.8L264.03-4.8 266.03-1.55Q266.03 0 256.18 0L256.18 0ZM245.63-16.1L245.63-12.9 259.38-12.9 259.38-16.1Q259.38-17.1 259.15-17.5 258.93-17.9 257.83-18 256.73-18.1 254.08-18.1L254.08-18.1 248.03-18.1Q245.63-18.1 245.63-16.1L245.63-16.1ZM279.62 0L277.12 0Q274.62 0 273.27-0.65 271.92-1.3 271.35-2.3 270.77-3.3 270.65-4.4 270.52-5.5 270.52-6.4L270.52-6.4 270.52-16Q270.52-16.75 270.65-17.82 270.77-18.9 271.35-19.95 271.92-21 273.3-21.7 274.67-22.4 277.12-22.4L277.12-22.4 279.67-22.4Q284.27-22.4 287.1-22.23 289.92-22.05 291.42-21.85L291.42-21.85 291.42-31.7 297.52-31.7 297.52 0 293.42 0 291.47-1Q289.37-0.65 286.42-0.33 283.47 0 279.62 0L279.62 0ZM279.02-4.3L279.02-4.3 289.87-4.3Q290.92-4.3 291.17-4.55 291.42-4.8 291.42-5.8L291.42-5.8 291.42-17.75Q289.72-17.85 287.12-17.98 284.52-18.1 281.57-18.1L281.57-18.1 279.02-18.1Q276.62-18.1 276.62-16.1L276.62-16.1 276.62-6.3Q276.62-4.3 279.02-4.3Z" opacity="1" transform="matrix(1,0,0,1,0,0)" fill="#ffffff" class="undefined-text-1" data-fill-palette-color="secondary" id="text-1"></path></svg></g></svg></g></svg></g></svg></g><g transform="matrix(1,0,0,1,411.2472877520849,0)"><svg viewBox="0 0 166.10470562750274 199.72580514822099" height="199.72580514822099" width="166.10470562750274"><g><svg xmlns="http://www.w3.org/2000/svg" xmlns:xlink="http://www.w3.org/1999/xlink" version="1.1" x="0" y="0" viewBox="9.640003204345703 1 81.36000061035156 97.8280029296875" enable-background="new 0 0 100 100" xml:space="preserve" height="199.72580514822099" width="166.10470562750274" class="icon-icon-0" data-fill-palette-color="accent" id="icon-0"><g fill="#1c4b82" data-fill-palette-color="accent"><g fill="#1c4b82" data-fill-palette-color="accent"><path fill="#ffffff" d="M71.15 55.636c8.644-9.455 13.473-18.541 16.13-26.462 0 0.024 0 0.024 0.008 0.04 0 0 1.069-2.789 1.908-7.179 0.062-0.292 0.104-0.559 0.159-0.854 0.063-0.368 0.128-0.747 0.184-1.133 1.029-6.393 0.687-11.445 0.239-14.422 0.143-0.135 0.295-0.303 0.438-0.495 0.527-0.663 0.752-1.349 0.52-1.532l-0.28-0.212L91 1l-2.587 0.818L88.07 1.562c-0.239-0.175-0.846 0.224-1.364 0.886-0.104 0.143-0.2 0.28-0.28 0.415 0 0-9.473 0.295-20.432 7.255h0.017c-15.324 9.45-22.571 24.31-22.571 24.31-27.639-3.71-33.8 22.021-33.8 22.021 53.873-3.16 46.729 37.543 46.729 37.543C79.945 83.649 71.15 55.636 71.15 55.636zM69.371 41.524c-2.443 2.69-6.561 3.396-9.889 1.477-3.815-2.195-5.148-6.991-2.978-10.71 0.264-0.463 0.575-0.874 0.918-1.253 2.434-2.69 6.552-3.393 9.888-1.477 3.808 2.187 5.149 6.987 2.979 10.711C70.017 40.734 69.705 41.149 69.371 41.524z" data-fill-palette-color="accent"></path><path fill="#ffffff" d="M30.949 97.333c13.296-4.829 18.133-22.384 18.133-22.384C34.956 81.278 30.949 97.333 30.949 97.333z" data-fill-palette-color="accent"></path><path fill="#ffffff" d="M16.806 98.828c17.623-6.504 23.952-30.4 23.952-30.4C22.051 76.96 16.806 98.828 16.806 98.828z" data-fill-palette-color="accent"></path><path fill="#ffffff" d="M14.292 84.28c13.297-4.821 18.134-22.372 18.134-22.372C18.307 68.226 14.292 84.28 14.292 84.28z" data-fill-palette-color="accent"></path></g></g></svg></g></svg></g></svg></g></svg><rect width="395.52" height="136.8238983463381" fill="none" stroke="none" visibility="hidden"></rect></g></svg></g></svg>