<svg width="30" height="30" viewBox="0 0 30 30" fill="none" xmlns="http://www.w3.org/2000/svg">
<rect width="30" height="30" rx="4" fill="#E0E0E0"/>
<g clip-path="url(#clip0_36_3817)">
<mask id="mask0_36_3817" style="mask-type:alpha" maskUnits="userSpaceOnUse" x="5" y="5" width="20" height="20">
<rect x="5" y="5" width="20" height="20" fill="white"/>
</mask>
<g mask="url(#mask0_36_3817)">
<path d="M24.9824 12.7247C24.9401 12.5952 24.8281 12.5006 24.6931 12.481L18.217 11.5398L15.3209 5.67156C15.2607 5.54913 15.1361 5.4718 15.0001 5.4718C14.8641 5.4718 14.7391 5.54913 14.6793 5.67156L11.7828 11.5401L5.30672 12.4813C5.17176 12.501 5.06006 12.5952 5.01746 12.7251C4.97558 12.8543 5.0103 12.9968 5.10804 13.0917L9.79452 17.6597L8.68797 24.11C8.66505 24.2442 8.72019 24.3799 8.83009 24.4601C8.94071 24.541 9.08713 24.5514 9.20706 24.4873L15.0001 21.4422L20.7924 24.4873C20.8447 24.5149 20.9023 24.5285 20.9593 24.5285C21.0334 24.5285 21.1071 24.5056 21.1698 24.4601C21.28 24.3799 21.3351 24.2442 21.3119 24.11L20.2057 17.66L24.8922 13.0917C24.9895 12.9961 25.0246 12.854 24.9824 12.7247Z" fill="#1C4B82"/>
</g>
</g>
<defs>
<clipPath id="clip0_36_3817">
<rect width="20" height="20" fill="white" transform="translate(5 5)"/>
</clipPath>
</defs>
</svg>
