<svg width="50" height="50" fill="none" xmlns="http://www.w3.org/2000/svg">
<rect x="5" y="3" width="40" height="40" rx="20" fill="white"/>
<path d="M25 23C27.0627 23 28.7333 21.3293 28.7333 19.2667C28.7333 17.204 27.0627 15.5333 25 15.5333C22.9373 15.5333 21.2667 17.204 21.2667 19.2667C21.2667 21.3293 22.9373 23 25 23ZM25 24.8667C22.508 24.8667 17.5333 26.1173 17.5333 28.6V29.5333C17.5333 30.0467 17.9533 30.4667 18.4667 30.4667H31.5333C32.0467 30.4667 32.4667 30.0467 32.4667 29.5333V28.6C32.4667 26.1173 27.492 24.8667 25 24.8667Z" fill="#1C4B82"/>
</svg>
