<svg width="44" height="44" viewBox="0 0 44 44" fill="none" xmlns="http://www.w3.org/2000/svg">
<g clip-path="url(#clip0_24_3438)">
<rect width="44" height="44" rx="12" fill="#1C4B82"/>
<g clip-path="url(#clip1_24_3438)">
<mask id="mask0_24_3438" style="mask-type:alpha" maskUnits="userSpaceOnUse" x="12" y="12" width="20" height="20">
<rect x="12" y="12" width="20" height="20" fill="white"/>
</mask>
<g mask="url(#mask0_24_3438)">
<path d="M31.9824 19.7248C31.9401 19.5952 31.8281 19.5007 31.6931 19.481L25.217 18.5398L22.3209 12.6716C22.2607 12.5492 22.1361 12.4719 22.0001 12.4719C21.8641 12.4719 21.7391 12.5492 21.6793 12.6716L18.7828 18.5402L12.3067 19.4814C12.1718 19.5011 12.0601 19.5952 12.0175 19.7252C11.9756 19.8544 12.0103 19.9969 12.108 20.0917L16.7945 24.6598L15.688 31.1101C15.6651 31.2443 15.7202 31.38 15.8301 31.4602C15.9407 31.5411 16.0871 31.5515 16.2071 31.4874L22.0001 28.4423L27.7924 31.4874C27.8447 31.515 27.9023 31.5286 27.9593 31.5286C28.0334 31.5286 28.1071 31.5057 28.1698 31.4602C28.28 31.38 28.3351 31.2443 28.3119 31.1101L27.2057 24.6601L31.8922 20.0917C31.9895 19.9962 32.0246 19.854 31.9824 19.7248Z" fill="white"/>
</g>
</g>
</g>
<defs>
<clipPath id="clip0_24_3438">
<rect width="44" height="44" fill="white"/>
</clipPath>
<clipPath id="clip1_24_3438">
<rect width="20" height="20" fill="white" transform="translate(12 12)"/>
</clipPath>
</defs>
</svg>
